G75*
%MOIN*%
%OFA0B0*%
%FSLAX25Y25*%
%IPPOS*%
%LPD*%
%AMOC8*
5,1,8,0,0,1.08239X$1,22.5*
%
%ADD10C,0.00300*%
%ADD11C,0.00200*%
D10*
X0022304Y0014822D02*
X0023538Y0014822D01*
X0024155Y0015440D01*
X0024155Y0016674D01*
X0023538Y0017291D01*
X0022304Y0017291D01*
X0021686Y0016674D01*
X0021686Y0016057D01*
X0024155Y0016057D01*
X0025373Y0017291D02*
X0025990Y0017291D01*
X0027224Y0016057D01*
X0028439Y0016057D02*
X0030290Y0016057D01*
X0030908Y0015440D01*
X0030290Y0014822D01*
X0028439Y0014822D01*
X0028439Y0016674D01*
X0029056Y0017291D01*
X0030290Y0017291D01*
X0032122Y0017291D02*
X0032122Y0015440D01*
X0032739Y0014822D01*
X0033356Y0015440D01*
X0033974Y0014822D01*
X0034591Y0015440D01*
X0034591Y0017291D01*
X0035805Y0017291D02*
X0037657Y0017291D01*
X0038274Y0016674D01*
X0038274Y0015440D01*
X0037657Y0014822D01*
X0035805Y0014822D01*
X0035805Y0018526D01*
X0039492Y0017291D02*
X0040109Y0017291D01*
X0041343Y0016057D01*
X0042558Y0016057D02*
X0044409Y0016057D01*
X0045026Y0015440D01*
X0044409Y0014822D01*
X0042558Y0014822D01*
X0042558Y0016674D01*
X0043175Y0017291D01*
X0044409Y0017291D01*
X0046241Y0016674D02*
X0048709Y0016674D01*
X0048709Y0014822D02*
X0048709Y0018526D01*
X0046241Y0018526D02*
X0046241Y0014822D01*
X0041343Y0014822D02*
X0041343Y0017291D01*
X0040309Y0022303D02*
X0040309Y0024154D01*
X0040927Y0024771D01*
X0042778Y0024771D01*
X0042778Y0022303D01*
X0043993Y0023537D02*
X0046461Y0023537D01*
X0046461Y0022920D02*
X0046461Y0024154D01*
X0045844Y0024771D01*
X0044610Y0024771D01*
X0043993Y0024154D01*
X0043993Y0023537D01*
X0044610Y0022303D02*
X0045844Y0022303D01*
X0046461Y0022920D01*
X0047676Y0022920D02*
X0048293Y0022303D01*
X0050144Y0022303D01*
X0051359Y0022920D02*
X0051359Y0025389D01*
X0051976Y0026006D01*
X0053210Y0026006D01*
X0053828Y0025389D01*
X0053828Y0022920D01*
X0053210Y0022303D01*
X0051976Y0022303D01*
X0051359Y0022920D01*
X0050144Y0021068D02*
X0050144Y0024771D01*
X0048293Y0024771D01*
X0047676Y0024154D01*
X0047676Y0022920D01*
X0035412Y0022920D02*
X0034795Y0022303D01*
X0033560Y0022303D01*
X0032943Y0022920D01*
X0032943Y0023537D01*
X0033560Y0024154D01*
X0034795Y0024154D01*
X0035412Y0024771D01*
X0035412Y0025389D01*
X0034795Y0026006D01*
X0033560Y0026006D01*
X0032943Y0025389D01*
X0031729Y0024154D02*
X0031729Y0022920D01*
X0031112Y0022303D01*
X0029877Y0022303D01*
X0029260Y0022920D01*
X0029260Y0024154D01*
X0029877Y0024771D01*
X0031112Y0024771D01*
X0031729Y0024154D01*
X0028046Y0024771D02*
X0028046Y0022920D01*
X0027428Y0022303D01*
X0025577Y0022303D01*
X0025577Y0024771D01*
X0024362Y0024771D02*
X0024362Y0022303D01*
X0024362Y0023537D02*
X0023128Y0024771D01*
X0022511Y0024771D01*
X0021293Y0024154D02*
X0021293Y0022920D01*
X0020676Y0022303D01*
X0018824Y0022303D01*
X0017610Y0022920D02*
X0017610Y0024154D01*
X0016993Y0024771D01*
X0015758Y0024771D01*
X0015141Y0024154D01*
X0015141Y0023537D01*
X0017610Y0023537D01*
X0017610Y0022920D02*
X0016993Y0022303D01*
X0015758Y0022303D01*
X0018824Y0024771D02*
X0020676Y0024771D01*
X0021293Y0024154D01*
X0027224Y0017291D02*
X0027224Y0014822D01*
D11*
X0028836Y0028882D02*
X0028436Y0029232D01*
X0028086Y0029582D01*
X0027686Y0030032D01*
X0027336Y0030482D01*
X0028786Y0032582D01*
X0028436Y0033182D01*
X0028236Y0033782D01*
X0028036Y0034582D01*
X0025586Y0035032D01*
X0025586Y0036182D01*
X0025636Y0036732D01*
X0025686Y0037232D01*
X0028136Y0037682D01*
X0028336Y0038332D01*
X0028586Y0038882D01*
X0028936Y0039482D01*
X0028986Y0039582D01*
X0027586Y0041532D01*
X0027986Y0042032D01*
X0028486Y0042532D01*
X0028886Y0042882D01*
X0029236Y0043132D01*
X0031286Y0041682D01*
X0031736Y0041932D01*
X0032186Y0042132D01*
X0032636Y0042332D01*
X0033086Y0042432D01*
X0033536Y0044882D01*
X0034136Y0044932D01*
X0035286Y0044932D01*
X0035786Y0044882D01*
X0036186Y0042482D01*
X0036936Y0042232D01*
X0037436Y0042032D01*
X0038136Y0041632D01*
X0040136Y0043082D01*
X0040586Y0042732D01*
X0041086Y0042232D01*
X0041486Y0041782D01*
X0041736Y0041532D01*
X0040336Y0039482D01*
X0040636Y0038982D01*
X0040936Y0038332D01*
X0041086Y0037782D01*
X0041236Y0037432D01*
X0043686Y0037032D01*
X0043686Y0034832D01*
X0041236Y0034432D01*
X0041036Y0033732D01*
X0040886Y0033232D01*
X0040686Y0032832D01*
X0040336Y0032232D01*
X0041786Y0030232D01*
X0041386Y0029782D01*
X0041036Y0029432D01*
X0040586Y0029032D01*
X0040236Y0028732D01*
X0038186Y0030132D01*
X0037036Y0029532D01*
X0035636Y0033532D01*
X0036133Y0033781D01*
X0036566Y0034130D01*
X0036913Y0034564D01*
X0037160Y0035062D01*
X0037294Y0035602D01*
X0037310Y0036157D01*
X0037206Y0036704D01*
X0036988Y0037215D01*
X0036665Y0037667D01*
X0036253Y0038040D01*
X0035770Y0038317D01*
X0035240Y0038483D01*
X0034686Y0038532D01*
X0034151Y0038466D01*
X0033640Y0038293D01*
X0033175Y0038019D01*
X0032776Y0037655D01*
X0032459Y0037219D01*
X0032238Y0036726D01*
X0032122Y0036199D01*
X0032116Y0035659D01*
X0032220Y0035130D01*
X0032430Y0034633D01*
X0032737Y0034189D01*
X0033128Y0033817D01*
X0033586Y0033532D01*
X0032036Y0029632D01*
X0031436Y0029882D01*
X0030836Y0030282D01*
X0028836Y0028882D01*
X0028677Y0029022D02*
X0029035Y0029022D01*
X0029319Y0029220D02*
X0028450Y0029220D01*
X0028250Y0029419D02*
X0029603Y0029419D01*
X0029886Y0029617D02*
X0028055Y0029617D01*
X0027879Y0029816D02*
X0030170Y0029816D01*
X0030453Y0030014D02*
X0027702Y0030014D01*
X0027546Y0030213D02*
X0030737Y0030213D01*
X0030941Y0030213D02*
X0032267Y0030213D01*
X0032346Y0030411D02*
X0027391Y0030411D01*
X0027424Y0030610D02*
X0032425Y0030610D01*
X0032504Y0030808D02*
X0027561Y0030808D01*
X0027698Y0031007D02*
X0032583Y0031007D01*
X0032661Y0031205D02*
X0027836Y0031205D01*
X0027973Y0031404D02*
X0032740Y0031404D01*
X0032819Y0031602D02*
X0028110Y0031602D01*
X0028247Y0031801D02*
X0032898Y0031801D01*
X0032977Y0031999D02*
X0028384Y0031999D01*
X0028521Y0032198D02*
X0033056Y0032198D01*
X0033135Y0032396D02*
X0028658Y0032396D01*
X0028779Y0032595D02*
X0033214Y0032595D01*
X0033293Y0032793D02*
X0028663Y0032793D01*
X0028547Y0032992D02*
X0033372Y0032992D01*
X0033450Y0033190D02*
X0028434Y0033190D01*
X0028367Y0033389D02*
X0033529Y0033389D01*
X0033497Y0033587D02*
X0028301Y0033587D01*
X0028235Y0033786D02*
X0033177Y0033786D01*
X0032951Y0033984D02*
X0028186Y0033984D01*
X0028136Y0034183D02*
X0032743Y0034183D01*
X0032604Y0034381D02*
X0028086Y0034381D01*
X0028037Y0034580D02*
X0032466Y0034580D01*
X0032368Y0034778D02*
X0026968Y0034778D01*
X0025887Y0034977D02*
X0032284Y0034977D01*
X0032211Y0035176D02*
X0025586Y0035176D01*
X0025586Y0035374D02*
X0032172Y0035374D01*
X0032133Y0035573D02*
X0025586Y0035573D01*
X0025586Y0035771D02*
X0032117Y0035771D01*
X0032119Y0035970D02*
X0025586Y0035970D01*
X0025586Y0036168D02*
X0032122Y0036168D01*
X0032159Y0036367D02*
X0025603Y0036367D01*
X0025621Y0036565D02*
X0032202Y0036565D01*
X0032255Y0036764D02*
X0025639Y0036764D01*
X0025659Y0036962D02*
X0032344Y0036962D01*
X0032433Y0037161D02*
X0025679Y0037161D01*
X0026377Y0037359D02*
X0032561Y0037359D01*
X0032705Y0037558D02*
X0027458Y0037558D01*
X0028159Y0037756D02*
X0032886Y0037756D01*
X0033104Y0037955D02*
X0028220Y0037955D01*
X0028281Y0038153D02*
X0033403Y0038153D01*
X0033813Y0038352D02*
X0028345Y0038352D01*
X0028435Y0038550D02*
X0040836Y0038550D01*
X0040927Y0038352D02*
X0035659Y0038352D01*
X0036056Y0038153D02*
X0040985Y0038153D01*
X0041039Y0037955D02*
X0036348Y0037955D01*
X0036567Y0037756D02*
X0041097Y0037756D01*
X0041183Y0037558D02*
X0036743Y0037558D01*
X0036885Y0037359D02*
X0041684Y0037359D01*
X0042900Y0037161D02*
X0037011Y0037161D01*
X0037095Y0036962D02*
X0043686Y0036962D01*
X0043686Y0036764D02*
X0037180Y0036764D01*
X0037232Y0036565D02*
X0043686Y0036565D01*
X0043686Y0036367D02*
X0037270Y0036367D01*
X0037308Y0036168D02*
X0043686Y0036168D01*
X0043686Y0035970D02*
X0037304Y0035970D01*
X0037299Y0035771D02*
X0043686Y0035771D01*
X0043686Y0035573D02*
X0037287Y0035573D01*
X0037237Y0035374D02*
X0043686Y0035374D01*
X0043686Y0035176D02*
X0037188Y0035176D01*
X0037118Y0034977D02*
X0043686Y0034977D01*
X0043357Y0034778D02*
X0037019Y0034778D01*
X0036921Y0034580D02*
X0042141Y0034580D01*
X0041222Y0034381D02*
X0036767Y0034381D01*
X0036608Y0034183D02*
X0041165Y0034183D01*
X0041108Y0033984D02*
X0036385Y0033984D01*
X0036140Y0033786D02*
X0041052Y0033786D01*
X0040993Y0033587D02*
X0035747Y0033587D01*
X0035686Y0033389D02*
X0040933Y0033389D01*
X0040865Y0033190D02*
X0035756Y0033190D01*
X0035825Y0032992D02*
X0040766Y0032992D01*
X0040664Y0032793D02*
X0035895Y0032793D01*
X0035964Y0032595D02*
X0040548Y0032595D01*
X0040432Y0032396D02*
X0036034Y0032396D01*
X0036103Y0032198D02*
X0040361Y0032198D01*
X0040505Y0031999D02*
X0036173Y0031999D01*
X0036242Y0031801D02*
X0040649Y0031801D01*
X0040793Y0031602D02*
X0036312Y0031602D01*
X0036381Y0031404D02*
X0040937Y0031404D01*
X0041081Y0031205D02*
X0036451Y0031205D01*
X0036520Y0031007D02*
X0041225Y0031007D01*
X0041369Y0030808D02*
X0036590Y0030808D01*
X0036659Y0030610D02*
X0041513Y0030610D01*
X0041656Y0030411D02*
X0036729Y0030411D01*
X0036798Y0030213D02*
X0041769Y0030213D01*
X0041592Y0030014D02*
X0038359Y0030014D01*
X0038650Y0029816D02*
X0041416Y0029816D01*
X0041221Y0029617D02*
X0038940Y0029617D01*
X0039231Y0029419D02*
X0041021Y0029419D01*
X0040798Y0029220D02*
X0039522Y0029220D01*
X0039812Y0029022D02*
X0040574Y0029022D01*
X0040342Y0028823D02*
X0040103Y0028823D01*
X0037960Y0030014D02*
X0036868Y0030014D01*
X0036937Y0029816D02*
X0037580Y0029816D01*
X0037199Y0029617D02*
X0037007Y0029617D01*
X0032188Y0030014D02*
X0031238Y0030014D01*
X0031596Y0029816D02*
X0032109Y0029816D01*
X0028526Y0038749D02*
X0040744Y0038749D01*
X0040652Y0038947D02*
X0028624Y0038947D01*
X0028740Y0039146D02*
X0040538Y0039146D01*
X0040419Y0039344D02*
X0028856Y0039344D01*
X0028967Y0039543D02*
X0040378Y0039543D01*
X0040513Y0039741D02*
X0028872Y0039741D01*
X0028730Y0039940D02*
X0040649Y0039940D01*
X0040784Y0040138D02*
X0028587Y0040138D01*
X0028445Y0040337D02*
X0040920Y0040337D01*
X0041055Y0040535D02*
X0028302Y0040535D01*
X0028159Y0040734D02*
X0041191Y0040734D01*
X0041327Y0040932D02*
X0028017Y0040932D01*
X0027874Y0041131D02*
X0041462Y0041131D01*
X0041598Y0041329D02*
X0027732Y0041329D01*
X0027589Y0041528D02*
X0041733Y0041528D01*
X0041542Y0041726D02*
X0038266Y0041726D01*
X0037971Y0041726D02*
X0031366Y0041726D01*
X0031224Y0041726D02*
X0027742Y0041726D01*
X0027900Y0041925D02*
X0030943Y0041925D01*
X0030663Y0042123D02*
X0028077Y0042123D01*
X0028276Y0042322D02*
X0030382Y0042322D01*
X0030101Y0042520D02*
X0028474Y0042520D01*
X0028700Y0042719D02*
X0029821Y0042719D01*
X0029540Y0042917D02*
X0028936Y0042917D01*
X0029214Y0043116D02*
X0029259Y0043116D01*
X0031723Y0041925D02*
X0037624Y0041925D01*
X0037208Y0042123D02*
X0032166Y0042123D01*
X0032613Y0042322D02*
X0036667Y0042322D01*
X0036180Y0042520D02*
X0033102Y0042520D01*
X0033139Y0042719D02*
X0036147Y0042719D01*
X0036114Y0042917D02*
X0033175Y0042917D01*
X0033212Y0043116D02*
X0036081Y0043116D01*
X0036048Y0043314D02*
X0033248Y0043314D01*
X0033285Y0043513D02*
X0036014Y0043513D01*
X0035981Y0043711D02*
X0033321Y0043711D01*
X0033358Y0043910D02*
X0035948Y0043910D01*
X0035915Y0044109D02*
X0033394Y0044109D01*
X0033431Y0044307D02*
X0035882Y0044307D01*
X0035849Y0044506D02*
X0033467Y0044506D01*
X0033504Y0044704D02*
X0035816Y0044704D01*
X0035583Y0044903D02*
X0033780Y0044903D01*
X0038540Y0041925D02*
X0041359Y0041925D01*
X0041183Y0042123D02*
X0038814Y0042123D01*
X0039088Y0042322D02*
X0040997Y0042322D01*
X0040798Y0042520D02*
X0039361Y0042520D01*
X0039635Y0042719D02*
X0040600Y0042719D01*
X0040348Y0042917D02*
X0039909Y0042917D01*
M02*
