G75*
%MOIN*%
%OFA0B0*%
%FSLAX25Y25*%
%IPPOS*%
%LPD*%
%AMOC8*
5,1,8,0,0,1.08239X$1,22.5*
%
%ADD10R,0.03543X0.11811*%
%ADD11R,0.09843X0.20276*%
%ADD12C,0.05600*%
%ADD13C,0.10000*%
%ADD14C,0.03962*%
%ADD15C,0.01600*%
%ADD16C,0.03200*%
D10*
X0020787Y0061478D03*
X0031121Y0061718D03*
X0038995Y0061718D03*
X0049209Y0061838D03*
D11*
X0063917Y0050731D03*
X0006351Y0050758D03*
D12*
X0068980Y0079587D03*
X0078600Y0079587D03*
X0088610Y0079587D03*
X0093420Y0068280D03*
X0083670Y0068280D03*
X0073660Y0068280D03*
D13*
X0113684Y0006400D03*
D14*
X0093835Y0038381D03*
X0073176Y0038381D03*
X0039430Y0075911D03*
X0060978Y0083407D03*
D15*
X0060687Y0084131D02*
X0064630Y0084131D01*
X0064340Y0084127D02*
X0076862Y0084127D01*
X0078544Y0082445D01*
X0078544Y0080945D01*
X0088601Y0080778D02*
X0088601Y0082278D01*
X0090283Y0083960D01*
X0102805Y0083960D01*
X0106175Y0080591D01*
X0106175Y0050439D01*
X0093835Y0038381D01*
X0083927Y0039967D02*
X0080000Y0034731D01*
X0039810Y0034731D01*
X0034943Y0040347D01*
X0035049Y0051578D01*
X0031099Y0056843D01*
X0039244Y0065991D02*
X0039244Y0075911D01*
X0049145Y0057884D02*
X0053452Y0050837D01*
X0053452Y0042031D01*
X0056635Y0038288D01*
X0073457Y0038288D01*
X0083927Y0039967D02*
X0083927Y0067675D01*
D16*
X0028038Y0031175D02*
X0017556Y0041844D01*
X0017556Y0049862D01*
X0021058Y0056315D01*
X0028038Y0031175D02*
X0109166Y0031175D01*
X0113653Y0026875D01*
X0113653Y0009992D01*
M02*
