G75*
%MOIN*%
%OFA0B0*%
%FSLAX25Y25*%
%IPPOS*%
%LPD*%
%AMOC8*
5,1,8,0,0,1.08239X$1,22.5*
%
%ADD10C,0.00500*%
D10*
X0011650Y0007700D02*
X0058710Y0007700D01*
X0058710Y0028240D01*
X0083187Y0028110D01*
X0081189Y0028180D02*
X0108702Y0028180D01*
X0108702Y0006322D01*
X0118545Y0006322D01*
X0118446Y0006328D02*
X0118446Y0076579D01*
X0118555Y0076470D02*
X0118543Y0076712D01*
X0118524Y0076954D01*
X0118500Y0077196D01*
X0118470Y0077437D01*
X0118433Y0077677D01*
X0118391Y0077916D01*
X0118343Y0078153D01*
X0118289Y0078390D01*
X0118230Y0078625D01*
X0118164Y0078859D01*
X0118093Y0079091D01*
X0118017Y0079321D01*
X0117934Y0079550D01*
X0117846Y0079776D01*
X0117753Y0080000D01*
X0117654Y0080221D01*
X0117550Y0080440D01*
X0117440Y0080657D01*
X0117325Y0080871D01*
X0117205Y0081082D01*
X0117079Y0081289D01*
X0116949Y0081494D01*
X0116814Y0081695D01*
X0116673Y0081893D01*
X0116528Y0082088D01*
X0116379Y0082279D01*
X0116224Y0082466D01*
X0116065Y0082649D01*
X0115902Y0082829D01*
X0115734Y0083004D01*
X0115562Y0083175D01*
X0115386Y0083342D01*
X0115205Y0083505D01*
X0115021Y0083663D01*
X0114833Y0083816D01*
X0114642Y0083965D01*
X0114446Y0084109D01*
X0114247Y0084248D01*
X0114045Y0084383D01*
X0113840Y0084512D01*
X0113631Y0084636D01*
X0113420Y0084755D01*
X0113206Y0084869D01*
X0112989Y0084978D01*
X0112769Y0085081D01*
X0112547Y0085178D01*
X0112322Y0085271D01*
X0112096Y0085357D01*
X0111867Y0085439D01*
X0111636Y0085514D01*
X0111404Y0085584D01*
X0111170Y0085648D01*
X0110934Y0085706D01*
X0110697Y0085759D01*
X0110459Y0085806D01*
X0110220Y0085847D01*
X0109980Y0085882D01*
X0109739Y0085911D01*
X0109497Y0085934D01*
X0109255Y0085951D01*
X0109013Y0085962D01*
X0108770Y0085968D01*
X0108528Y0085967D01*
X0108285Y0085960D01*
X0108298Y0085980D02*
X0011830Y0085850D01*
X0011520Y0085960D02*
X0011281Y0085967D01*
X0011042Y0085968D01*
X0010803Y0085963D01*
X0010565Y0085952D01*
X0010326Y0085935D01*
X0010088Y0085913D01*
X0009851Y0085885D01*
X0009614Y0085851D01*
X0009379Y0085812D01*
X0009144Y0085767D01*
X0008911Y0085716D01*
X0008679Y0085659D01*
X0008448Y0085597D01*
X0008219Y0085530D01*
X0007991Y0085457D01*
X0007765Y0085378D01*
X0007542Y0085294D01*
X0007320Y0085205D01*
X0007101Y0085110D01*
X0006884Y0085010D01*
X0006669Y0084905D01*
X0006457Y0084794D01*
X0006248Y0084679D01*
X0006042Y0084558D01*
X0005838Y0084433D01*
X0005638Y0084303D01*
X0005441Y0084167D01*
X0005247Y0084028D01*
X0005057Y0083883D01*
X0004870Y0083734D01*
X0004687Y0083581D01*
X0004508Y0083423D01*
X0004332Y0083261D01*
X0004161Y0083094D01*
X0003993Y0082924D01*
X0003830Y0082749D01*
X0003671Y0082571D01*
X0003516Y0082389D01*
X0003366Y0082203D01*
X0003220Y0082014D01*
X0003079Y0081821D01*
X0002943Y0081625D01*
X0002811Y0081425D01*
X0002684Y0081223D01*
X0002563Y0081017D01*
X0002446Y0080808D01*
X0002334Y0080597D01*
X0002228Y0080383D01*
X0002126Y0080167D01*
X0002030Y0079948D01*
X0001939Y0079727D01*
X0001854Y0079504D01*
X0001774Y0079279D01*
X0001699Y0079052D01*
X0001630Y0078823D01*
X0001567Y0078593D01*
X0001509Y0078361D01*
X0001456Y0078128D01*
X0001410Y0077894D01*
X0001369Y0077658D01*
X0001333Y0077422D01*
X0001304Y0077185D01*
X0001280Y0076947D01*
X0001262Y0076709D01*
X0001250Y0076470D01*
X0001250Y0072960D01*
X0001380Y0073480D02*
X0001250Y0040460D01*
X0001380Y0040330D02*
X0011130Y0040330D01*
X0011130Y0040070D01*
X0011650Y0040070D01*
X0011650Y0007700D01*
X0022399Y0046603D02*
X0022401Y0046708D01*
X0022407Y0046813D01*
X0022417Y0046917D01*
X0022431Y0047021D01*
X0022449Y0047125D01*
X0022471Y0047227D01*
X0022496Y0047329D01*
X0022526Y0047430D01*
X0022559Y0047529D01*
X0022596Y0047627D01*
X0022637Y0047724D01*
X0022682Y0047819D01*
X0022730Y0047912D01*
X0022781Y0048004D01*
X0022837Y0048093D01*
X0022895Y0048180D01*
X0022957Y0048265D01*
X0023021Y0048348D01*
X0023089Y0048428D01*
X0023160Y0048505D01*
X0023234Y0048579D01*
X0023311Y0048651D01*
X0023390Y0048720D01*
X0023472Y0048785D01*
X0023556Y0048848D01*
X0023643Y0048907D01*
X0023732Y0048963D01*
X0023823Y0049016D01*
X0023916Y0049065D01*
X0024010Y0049110D01*
X0024106Y0049152D01*
X0024204Y0049190D01*
X0024303Y0049224D01*
X0024404Y0049255D01*
X0024505Y0049281D01*
X0024608Y0049304D01*
X0024711Y0049323D01*
X0024815Y0049338D01*
X0024919Y0049349D01*
X0025024Y0049356D01*
X0025129Y0049359D01*
X0025234Y0049358D01*
X0025339Y0049353D01*
X0025443Y0049344D01*
X0025547Y0049331D01*
X0025651Y0049314D01*
X0025754Y0049293D01*
X0025856Y0049268D01*
X0025957Y0049240D01*
X0026056Y0049207D01*
X0026155Y0049171D01*
X0026252Y0049131D01*
X0026347Y0049088D01*
X0026441Y0049040D01*
X0026533Y0048990D01*
X0026623Y0048936D01*
X0026711Y0048878D01*
X0026796Y0048817D01*
X0026879Y0048753D01*
X0026960Y0048686D01*
X0027038Y0048616D01*
X0027113Y0048542D01*
X0027185Y0048467D01*
X0027255Y0048388D01*
X0027321Y0048307D01*
X0027385Y0048223D01*
X0027445Y0048137D01*
X0027501Y0048049D01*
X0027555Y0047958D01*
X0027605Y0047866D01*
X0027651Y0047772D01*
X0027694Y0047676D01*
X0027733Y0047578D01*
X0027768Y0047480D01*
X0027799Y0047379D01*
X0027827Y0047278D01*
X0027851Y0047176D01*
X0027871Y0047073D01*
X0027887Y0046969D01*
X0027899Y0046865D01*
X0027907Y0046760D01*
X0027911Y0046655D01*
X0027911Y0046551D01*
X0027907Y0046446D01*
X0027899Y0046341D01*
X0027887Y0046237D01*
X0027871Y0046133D01*
X0027851Y0046030D01*
X0027827Y0045928D01*
X0027799Y0045827D01*
X0027768Y0045726D01*
X0027733Y0045628D01*
X0027694Y0045530D01*
X0027651Y0045434D01*
X0027605Y0045340D01*
X0027555Y0045248D01*
X0027501Y0045157D01*
X0027445Y0045069D01*
X0027385Y0044983D01*
X0027321Y0044899D01*
X0027255Y0044818D01*
X0027185Y0044739D01*
X0027113Y0044664D01*
X0027038Y0044590D01*
X0026960Y0044520D01*
X0026879Y0044453D01*
X0026796Y0044389D01*
X0026711Y0044328D01*
X0026623Y0044270D01*
X0026533Y0044216D01*
X0026441Y0044166D01*
X0026347Y0044118D01*
X0026252Y0044075D01*
X0026155Y0044035D01*
X0026056Y0043999D01*
X0025957Y0043966D01*
X0025856Y0043938D01*
X0025754Y0043913D01*
X0025651Y0043892D01*
X0025547Y0043875D01*
X0025443Y0043862D01*
X0025339Y0043853D01*
X0025234Y0043848D01*
X0025129Y0043847D01*
X0025024Y0043850D01*
X0024919Y0043857D01*
X0024815Y0043868D01*
X0024711Y0043883D01*
X0024608Y0043902D01*
X0024505Y0043925D01*
X0024404Y0043951D01*
X0024303Y0043982D01*
X0024204Y0044016D01*
X0024106Y0044054D01*
X0024010Y0044096D01*
X0023916Y0044141D01*
X0023823Y0044190D01*
X0023732Y0044243D01*
X0023643Y0044299D01*
X0023556Y0044358D01*
X0023472Y0044421D01*
X0023390Y0044486D01*
X0023311Y0044555D01*
X0023234Y0044627D01*
X0023160Y0044701D01*
X0023089Y0044778D01*
X0023021Y0044858D01*
X0022957Y0044941D01*
X0022895Y0045026D01*
X0022837Y0045113D01*
X0022781Y0045202D01*
X0022730Y0045294D01*
X0022682Y0045387D01*
X0022637Y0045482D01*
X0022596Y0045579D01*
X0022559Y0045677D01*
X0022526Y0045776D01*
X0022496Y0045877D01*
X0022471Y0045979D01*
X0022449Y0046081D01*
X0022431Y0046185D01*
X0022417Y0046289D01*
X0022407Y0046393D01*
X0022401Y0046498D01*
X0022399Y0046603D01*
X0042084Y0046603D02*
X0042086Y0046708D01*
X0042092Y0046813D01*
X0042102Y0046917D01*
X0042116Y0047021D01*
X0042134Y0047125D01*
X0042156Y0047227D01*
X0042181Y0047329D01*
X0042211Y0047430D01*
X0042244Y0047529D01*
X0042281Y0047627D01*
X0042322Y0047724D01*
X0042367Y0047819D01*
X0042415Y0047912D01*
X0042466Y0048004D01*
X0042522Y0048093D01*
X0042580Y0048180D01*
X0042642Y0048265D01*
X0042706Y0048348D01*
X0042774Y0048428D01*
X0042845Y0048505D01*
X0042919Y0048579D01*
X0042996Y0048651D01*
X0043075Y0048720D01*
X0043157Y0048785D01*
X0043241Y0048848D01*
X0043328Y0048907D01*
X0043417Y0048963D01*
X0043508Y0049016D01*
X0043601Y0049065D01*
X0043695Y0049110D01*
X0043791Y0049152D01*
X0043889Y0049190D01*
X0043988Y0049224D01*
X0044089Y0049255D01*
X0044190Y0049281D01*
X0044293Y0049304D01*
X0044396Y0049323D01*
X0044500Y0049338D01*
X0044604Y0049349D01*
X0044709Y0049356D01*
X0044814Y0049359D01*
X0044919Y0049358D01*
X0045024Y0049353D01*
X0045128Y0049344D01*
X0045232Y0049331D01*
X0045336Y0049314D01*
X0045439Y0049293D01*
X0045541Y0049268D01*
X0045642Y0049240D01*
X0045741Y0049207D01*
X0045840Y0049171D01*
X0045937Y0049131D01*
X0046032Y0049088D01*
X0046126Y0049040D01*
X0046218Y0048990D01*
X0046308Y0048936D01*
X0046396Y0048878D01*
X0046481Y0048817D01*
X0046564Y0048753D01*
X0046645Y0048686D01*
X0046723Y0048616D01*
X0046798Y0048542D01*
X0046870Y0048467D01*
X0046940Y0048388D01*
X0047006Y0048307D01*
X0047070Y0048223D01*
X0047130Y0048137D01*
X0047186Y0048049D01*
X0047240Y0047958D01*
X0047290Y0047866D01*
X0047336Y0047772D01*
X0047379Y0047676D01*
X0047418Y0047578D01*
X0047453Y0047480D01*
X0047484Y0047379D01*
X0047512Y0047278D01*
X0047536Y0047176D01*
X0047556Y0047073D01*
X0047572Y0046969D01*
X0047584Y0046865D01*
X0047592Y0046760D01*
X0047596Y0046655D01*
X0047596Y0046551D01*
X0047592Y0046446D01*
X0047584Y0046341D01*
X0047572Y0046237D01*
X0047556Y0046133D01*
X0047536Y0046030D01*
X0047512Y0045928D01*
X0047484Y0045827D01*
X0047453Y0045726D01*
X0047418Y0045628D01*
X0047379Y0045530D01*
X0047336Y0045434D01*
X0047290Y0045340D01*
X0047240Y0045248D01*
X0047186Y0045157D01*
X0047130Y0045069D01*
X0047070Y0044983D01*
X0047006Y0044899D01*
X0046940Y0044818D01*
X0046870Y0044739D01*
X0046798Y0044664D01*
X0046723Y0044590D01*
X0046645Y0044520D01*
X0046564Y0044453D01*
X0046481Y0044389D01*
X0046396Y0044328D01*
X0046308Y0044270D01*
X0046218Y0044216D01*
X0046126Y0044166D01*
X0046032Y0044118D01*
X0045937Y0044075D01*
X0045840Y0044035D01*
X0045741Y0043999D01*
X0045642Y0043966D01*
X0045541Y0043938D01*
X0045439Y0043913D01*
X0045336Y0043892D01*
X0045232Y0043875D01*
X0045128Y0043862D01*
X0045024Y0043853D01*
X0044919Y0043848D01*
X0044814Y0043847D01*
X0044709Y0043850D01*
X0044604Y0043857D01*
X0044500Y0043868D01*
X0044396Y0043883D01*
X0044293Y0043902D01*
X0044190Y0043925D01*
X0044089Y0043951D01*
X0043988Y0043982D01*
X0043889Y0044016D01*
X0043791Y0044054D01*
X0043695Y0044096D01*
X0043601Y0044141D01*
X0043508Y0044190D01*
X0043417Y0044243D01*
X0043328Y0044299D01*
X0043241Y0044358D01*
X0043157Y0044421D01*
X0043075Y0044486D01*
X0042996Y0044555D01*
X0042919Y0044627D01*
X0042845Y0044701D01*
X0042774Y0044778D01*
X0042706Y0044858D01*
X0042642Y0044941D01*
X0042580Y0045026D01*
X0042522Y0045113D01*
X0042466Y0045202D01*
X0042415Y0045294D01*
X0042367Y0045387D01*
X0042322Y0045482D01*
X0042281Y0045579D01*
X0042244Y0045677D01*
X0042211Y0045776D01*
X0042181Y0045877D01*
X0042156Y0045979D01*
X0042134Y0046081D01*
X0042116Y0046185D01*
X0042102Y0046289D01*
X0042092Y0046393D01*
X0042086Y0046498D01*
X0042084Y0046603D01*
X0068330Y0068020D02*
X0095760Y0068150D01*
X0096540Y0068020D02*
X0090300Y0068020D01*
X0095630Y0079850D02*
X0095788Y0079863D01*
X0095946Y0079871D01*
X0096105Y0079876D01*
X0096264Y0079877D01*
X0096422Y0079874D01*
X0096581Y0079867D01*
X0096739Y0079856D01*
X0096897Y0079841D01*
X0097054Y0079822D01*
X0097211Y0079800D01*
X0097368Y0079773D01*
X0097523Y0079743D01*
X0097678Y0079709D01*
X0097832Y0079671D01*
X0097985Y0079630D01*
X0098137Y0079584D01*
X0098288Y0079535D01*
X0098438Y0079483D01*
X0098586Y0079426D01*
X0098733Y0079366D01*
X0098878Y0079303D01*
X0099022Y0079236D01*
X0099164Y0079165D01*
X0099304Y0079091D01*
X0099442Y0079013D01*
X0099579Y0078933D01*
X0099713Y0078848D01*
X0099845Y0078761D01*
X0099975Y0078670D01*
X0100103Y0078576D01*
X0100229Y0078479D01*
X0100352Y0078379D01*
X0100472Y0078276D01*
X0100590Y0078170D01*
X0100706Y0078061D01*
X0100819Y0077950D01*
X0100928Y0077836D01*
X0101036Y0077718D01*
X0101140Y0077599D01*
X0101241Y0077477D01*
X0101339Y0077352D01*
X0101434Y0077225D01*
X0101526Y0077096D01*
X0101615Y0076965D01*
X0101700Y0076831D01*
X0101782Y0076695D01*
X0101861Y0076558D01*
X0101937Y0076418D01*
X0102009Y0076277D01*
X0102077Y0076134D01*
X0102142Y0075989D01*
X0102204Y0075843D01*
X0102261Y0075695D01*
X0102315Y0075546D01*
X0102366Y0075396D01*
X0102413Y0075244D01*
X0102456Y0075092D01*
X0102495Y0074938D01*
X0102530Y0074783D01*
X0102562Y0074628D01*
X0102590Y0074472D01*
X0102614Y0074315D01*
X0102634Y0074158D01*
X0102650Y0074000D01*
X0102646Y0073847D01*
X0102639Y0073694D01*
X0102627Y0073541D01*
X0102612Y0073389D01*
X0102593Y0073237D01*
X0102570Y0073085D01*
X0102543Y0072935D01*
X0102513Y0072785D01*
X0102478Y0072635D01*
X0102440Y0072487D01*
X0102399Y0072340D01*
X0102353Y0072193D01*
X0102304Y0072048D01*
X0102251Y0071905D01*
X0102194Y0071762D01*
X0102134Y0071622D01*
X0102070Y0071482D01*
X0102003Y0071345D01*
X0101933Y0071209D01*
X0101859Y0071075D01*
X0101781Y0070943D01*
X0101700Y0070812D01*
X0101616Y0070684D01*
X0101529Y0070559D01*
X0101439Y0070435D01*
X0101345Y0070314D01*
X0101249Y0070195D01*
X0101149Y0070078D01*
X0101047Y0069965D01*
X0100941Y0069853D01*
X0100833Y0069745D01*
X0100722Y0069639D01*
X0100609Y0069536D01*
X0100493Y0069436D01*
X0100374Y0069339D01*
X0100254Y0069245D01*
X0100130Y0069154D01*
X0100005Y0069067D01*
X0099877Y0068982D01*
X0099747Y0068901D01*
X0099615Y0068823D01*
X0099482Y0068748D01*
X0099346Y0068677D01*
X0099209Y0068609D01*
X0099070Y0068545D01*
X0098929Y0068485D01*
X0098787Y0068428D01*
X0098643Y0068374D01*
X0098499Y0068324D01*
X0098353Y0068278D01*
X0098205Y0068236D01*
X0098057Y0068197D01*
X0097908Y0068162D01*
X0097758Y0068131D01*
X0097607Y0068104D01*
X0097456Y0068080D01*
X0097304Y0068061D01*
X0097152Y0068045D01*
X0096999Y0068033D01*
X0096846Y0068025D01*
X0096693Y0068021D01*
X0096540Y0068020D01*
X0095630Y0079850D02*
X0090690Y0079980D01*
X0095240Y0079980D02*
X0068070Y0079850D01*
X0067919Y0079833D01*
X0067768Y0079812D01*
X0067618Y0079787D01*
X0067468Y0079758D01*
X0067320Y0079725D01*
X0067172Y0079688D01*
X0067025Y0079647D01*
X0066880Y0079602D01*
X0066736Y0079554D01*
X0066592Y0079502D01*
X0066451Y0079446D01*
X0066311Y0079387D01*
X0066172Y0079323D01*
X0066035Y0079257D01*
X0065900Y0079186D01*
X0065767Y0079112D01*
X0065636Y0079035D01*
X0065507Y0078954D01*
X0065380Y0078870D01*
X0065256Y0078783D01*
X0065133Y0078692D01*
X0065013Y0078598D01*
X0064896Y0078502D01*
X0064781Y0078402D01*
X0064669Y0078299D01*
X0064559Y0078193D01*
X0064453Y0078084D01*
X0064349Y0077973D01*
X0064248Y0077859D01*
X0064150Y0077742D01*
X0064056Y0077623D01*
X0063964Y0077501D01*
X0063876Y0077378D01*
X0063791Y0077251D01*
X0063709Y0077123D01*
X0063631Y0076992D01*
X0063556Y0076860D01*
X0063484Y0076725D01*
X0063416Y0076589D01*
X0063352Y0076451D01*
X0063291Y0076311D01*
X0063234Y0076170D01*
X0063181Y0076028D01*
X0063132Y0075884D01*
X0063086Y0075739D01*
X0063044Y0075592D01*
X0063006Y0075445D01*
X0062972Y0075296D01*
X0062942Y0075147D01*
X0062915Y0074997D01*
X0062893Y0074847D01*
X0062874Y0074696D01*
X0062860Y0074544D01*
X0062849Y0074392D01*
X0062843Y0074240D01*
X0062840Y0074088D01*
X0062841Y0073936D01*
X0062847Y0073784D01*
X0062856Y0073632D01*
X0062870Y0073480D01*
X0063000Y0073480D01*
X0062870Y0073480D02*
X0062872Y0073335D01*
X0062878Y0073189D01*
X0062887Y0073044D01*
X0062901Y0072900D01*
X0062918Y0072755D01*
X0062940Y0072612D01*
X0062965Y0072468D01*
X0062993Y0072326D01*
X0063026Y0072184D01*
X0063062Y0072043D01*
X0063102Y0071904D01*
X0063146Y0071765D01*
X0063194Y0071628D01*
X0063245Y0071492D01*
X0063300Y0071357D01*
X0063358Y0071224D01*
X0063420Y0071092D01*
X0063485Y0070962D01*
X0063554Y0070834D01*
X0063626Y0070708D01*
X0063701Y0070584D01*
X0063780Y0070462D01*
X0063862Y0070342D01*
X0063947Y0070224D01*
X0064035Y0070108D01*
X0064127Y0069995D01*
X0064221Y0069885D01*
X0064318Y0069776D01*
X0064418Y0069671D01*
X0064521Y0069568D01*
X0064626Y0069468D01*
X0064735Y0069371D01*
X0064845Y0069277D01*
X0064958Y0069185D01*
X0065074Y0069097D01*
X0065192Y0069012D01*
X0065312Y0068930D01*
X0065434Y0068851D01*
X0065558Y0068776D01*
X0065684Y0068704D01*
X0065812Y0068635D01*
X0065942Y0068570D01*
X0066074Y0068508D01*
X0066207Y0068450D01*
X0066342Y0068395D01*
X0066478Y0068344D01*
X0066615Y0068296D01*
X0066754Y0068252D01*
X0066893Y0068212D01*
X0067034Y0068176D01*
X0067176Y0068143D01*
X0067318Y0068115D01*
X0067462Y0068090D01*
X0067605Y0068068D01*
X0067750Y0068051D01*
X0067894Y0068037D01*
X0068039Y0068028D01*
X0068185Y0068022D01*
X0068330Y0068020D01*
M02*
