G75*
%MOIN*%
%OFA0B0*%
%FSLAX25Y25*%
%IPPOS*%
%LPD*%
%AMOC8*
5,1,8,0,0,1.08239X$1,22.5*
%
%ADD10C,0.00900*%
%ADD11C,0.00600*%
%ADD12C,0.00500*%
D10*
X0073399Y0052796D02*
X0073399Y0059502D01*
X0075634Y0057267D01*
X0077870Y0059502D01*
X0077870Y0052796D01*
X0080397Y0053914D02*
X0080397Y0056149D01*
X0081515Y0057267D01*
X0083750Y0057267D01*
X0084868Y0056149D01*
X0084868Y0055032D01*
X0080397Y0055032D01*
X0080397Y0053914D02*
X0081515Y0052796D01*
X0083750Y0052796D01*
X0087395Y0052796D02*
X0087395Y0057267D01*
X0088513Y0057267D01*
X0089630Y0056149D01*
X0090748Y0057267D01*
X0091866Y0056149D01*
X0091866Y0052796D01*
X0089630Y0052796D02*
X0089630Y0056149D01*
X0094393Y0056149D02*
X0094393Y0053914D01*
X0095511Y0052796D01*
X0097746Y0052796D01*
X0098864Y0053914D01*
X0098864Y0056149D01*
X0097746Y0057267D01*
X0095511Y0057267D01*
X0094393Y0056149D01*
X0101391Y0055032D02*
X0103626Y0057267D01*
X0104744Y0057267D01*
X0107223Y0057267D02*
X0107223Y0053914D01*
X0108340Y0052796D01*
X0111693Y0052796D01*
X0111693Y0051679D02*
X0110576Y0050561D01*
X0109458Y0050561D01*
X0111693Y0051679D02*
X0111693Y0057267D01*
X0101391Y0057267D02*
X0101391Y0052796D01*
X0095386Y0049272D02*
X0095386Y0042566D01*
X0092033Y0042566D01*
X0090915Y0043684D01*
X0090915Y0045919D01*
X0092033Y0047037D01*
X0095386Y0047037D01*
X0097913Y0045919D02*
X0097913Y0043684D01*
X0099031Y0042566D01*
X0101266Y0042566D01*
X0102384Y0043684D01*
X0102384Y0045919D01*
X0101266Y0047037D01*
X0099031Y0047037D01*
X0097913Y0045919D01*
X0104911Y0047037D02*
X0104911Y0042566D01*
X0109382Y0042566D02*
X0109382Y0045919D01*
X0108264Y0047037D01*
X0104911Y0047037D01*
X0088388Y0047037D02*
X0085035Y0047037D01*
X0083917Y0045919D01*
X0083917Y0043684D01*
X0085035Y0042566D01*
X0088388Y0042566D01*
X0088388Y0049272D01*
X0081390Y0047037D02*
X0081390Y0042566D01*
X0081390Y0045919D02*
X0076919Y0045919D01*
X0076919Y0047037D02*
X0079154Y0049272D01*
X0081390Y0047037D01*
X0076919Y0047037D02*
X0076919Y0042566D01*
D11*
X0058716Y0078556D02*
X0056581Y0078556D01*
X0058716Y0080691D01*
X0058716Y0081225D01*
X0058182Y0081759D01*
X0057114Y0081759D01*
X0056581Y0081225D01*
X0055217Y0081225D02*
X0055217Y0079090D01*
X0054683Y0078556D01*
X0053615Y0078556D01*
X0053082Y0079090D01*
X0053615Y0080157D02*
X0055217Y0080157D01*
X0055217Y0081225D02*
X0054683Y0081759D01*
X0053615Y0081759D01*
X0053082Y0081225D01*
X0053082Y0080691D01*
X0053615Y0080157D01*
X0051718Y0080157D02*
X0051718Y0079090D01*
X0051184Y0078556D01*
X0050116Y0078556D01*
X0049583Y0079090D01*
X0049583Y0080157D02*
X0050650Y0080691D01*
X0051184Y0080691D01*
X0051718Y0080157D01*
X0051718Y0081759D02*
X0049583Y0081759D01*
X0049583Y0080157D01*
X0048219Y0079623D02*
X0048219Y0079090D01*
X0047685Y0078556D01*
X0046617Y0078556D01*
X0046084Y0079090D01*
X0046084Y0079623D01*
X0046617Y0080157D01*
X0047685Y0080157D01*
X0048219Y0079623D01*
X0047685Y0080157D02*
X0048219Y0080691D01*
X0048219Y0081225D01*
X0047685Y0081759D01*
X0046617Y0081759D01*
X0046084Y0081225D01*
X0046084Y0080691D01*
X0046617Y0080157D01*
X0044720Y0078556D02*
X0042585Y0078556D01*
X0043652Y0078556D02*
X0043652Y0081759D01*
X0042585Y0080691D01*
X0041320Y0080691D02*
X0040252Y0080691D01*
X0040786Y0081225D02*
X0040786Y0079090D01*
X0041320Y0078556D01*
X0038888Y0078556D02*
X0038888Y0080157D01*
X0038354Y0080691D01*
X0036753Y0080691D01*
X0036753Y0078556D01*
X0034855Y0078556D02*
X0033788Y0078556D01*
X0033254Y0079090D01*
X0033254Y0080157D01*
X0033788Y0080691D01*
X0034855Y0080691D01*
X0035389Y0080157D01*
X0035389Y0079623D01*
X0033254Y0079623D01*
X0031890Y0080157D02*
X0031356Y0080691D01*
X0030823Y0080157D01*
X0030823Y0078556D01*
X0031890Y0078556D02*
X0031890Y0080157D01*
X0030823Y0080157D02*
X0030289Y0080691D01*
X0029755Y0080691D01*
X0029755Y0078556D01*
X0027857Y0078556D02*
X0026790Y0078556D01*
X0026256Y0079090D01*
X0026256Y0080157D01*
X0026790Y0080691D01*
X0027857Y0080691D01*
X0028391Y0080157D01*
X0028391Y0079623D01*
X0026256Y0079623D01*
X0024991Y0078556D02*
X0023923Y0078556D01*
X0024457Y0078556D02*
X0024457Y0081759D01*
X0023923Y0081759D01*
X0022560Y0081759D02*
X0020424Y0081759D01*
X0020424Y0078556D01*
X0022560Y0078556D01*
X0021492Y0080157D02*
X0020424Y0080157D01*
X0015710Y0080157D02*
X0015176Y0080157D01*
X0015176Y0080691D01*
X0015710Y0080691D01*
X0015710Y0080157D01*
X0015710Y0079090D02*
X0015176Y0079090D01*
X0015176Y0078556D01*
X0015710Y0078556D01*
X0015710Y0079090D01*
X0013812Y0078556D02*
X0012211Y0078556D01*
X0011677Y0079090D01*
X0011677Y0080691D01*
X0010313Y0080691D02*
X0009779Y0080157D01*
X0008178Y0080157D01*
X0008178Y0078556D02*
X0009779Y0078556D01*
X0010313Y0079090D01*
X0010313Y0079623D01*
X0009779Y0080157D01*
X0010313Y0080691D02*
X0010313Y0081225D01*
X0009779Y0081759D01*
X0008178Y0081759D01*
X0008178Y0078556D01*
X0012745Y0077488D02*
X0013278Y0077488D01*
X0013812Y0078022D01*
X0013812Y0080691D01*
D12*
X0011731Y0007635D02*
X0058114Y0007635D01*
X0058736Y0007635D01*
X0058736Y0062685D01*
X0058758Y0063006D02*
X0011766Y0063006D01*
X0011652Y0062956D02*
X0011652Y0007906D01*
X0017558Y0013135D02*
X0030058Y0013135D01*
X0032558Y0038135D01*
X0037558Y0038135D02*
X0040058Y0013135D01*
X0052558Y0013135D01*
X0055058Y0038135D01*
X0015058Y0038135D02*
X0017558Y0013135D01*
M02*
