G04 EAGLE Gerber RS-274X export*
G75*
%MOMM*%
%FSLAX34Y34*%
%LPD*%
%INTop Copper*%
%IPPOS*%
%AMOC8*
5,1,8,0,0,1.08239X$1,22.5*%
G01*
%ADD10R,0.900000X3.000000*%
%ADD11R,2.500000X5.150000*%
%ADD12C,0.609600*%
%ADD13C,0.756400*%
%ADD14C,2.250000*%
%ADD15C,0.203200*%

G36*
X400683Y8171D02*
X400683Y8171D01*
X400747Y8170D01*
X400822Y8191D01*
X400898Y8202D01*
X400957Y8228D01*
X401019Y8245D01*
X401085Y8286D01*
X401155Y8318D01*
X401204Y8360D01*
X401259Y8394D01*
X401311Y8451D01*
X401370Y8501D01*
X401405Y8555D01*
X401448Y8603D01*
X401482Y8673D01*
X401524Y8737D01*
X401543Y8799D01*
X401571Y8857D01*
X401582Y8926D01*
X401607Y9007D01*
X401608Y9092D01*
X401619Y9161D01*
X401619Y197161D01*
X401609Y197225D01*
X401610Y197289D01*
X401590Y197364D01*
X401579Y197440D01*
X401552Y197499D01*
X401535Y197561D01*
X401494Y197627D01*
X401462Y197697D01*
X401421Y197746D01*
X401387Y197801D01*
X401329Y197853D01*
X401279Y197912D01*
X401225Y197947D01*
X401178Y197990D01*
X401108Y198024D01*
X401043Y198066D01*
X400982Y198085D01*
X400924Y198113D01*
X400854Y198124D01*
X400773Y198149D01*
X400689Y198150D01*
X400619Y198161D01*
X9385Y198161D01*
X9322Y198151D01*
X9257Y198152D01*
X9183Y198132D01*
X9106Y198121D01*
X9048Y198094D01*
X8986Y198077D01*
X8920Y198036D01*
X8849Y198004D01*
X8800Y197963D01*
X8746Y197929D01*
X8694Y197871D01*
X8635Y197821D01*
X8600Y197767D01*
X8557Y197720D01*
X8523Y197650D01*
X8480Y197585D01*
X8462Y197524D01*
X8434Y197466D01*
X8423Y197396D01*
X8398Y197315D01*
X8397Y197231D01*
X8386Y197161D01*
X8386Y9161D01*
X8395Y9098D01*
X8394Y9033D01*
X8415Y8959D01*
X8426Y8882D01*
X8452Y8824D01*
X8469Y8762D01*
X8510Y8696D01*
X8542Y8625D01*
X8584Y8576D01*
X8618Y8522D01*
X8675Y8470D01*
X8725Y8411D01*
X8779Y8376D01*
X8827Y8333D01*
X8897Y8299D01*
X8961Y8256D01*
X9023Y8238D01*
X9081Y8210D01*
X9150Y8199D01*
X9231Y8174D01*
X9316Y8173D01*
X9385Y8162D01*
X400619Y8162D01*
X400683Y8171D01*
G37*
%LPC*%
G36*
X145737Y69951D02*
X145737Y69951D01*
X115393Y100296D01*
X115393Y134302D01*
X115384Y134366D01*
X115385Y134430D01*
X115364Y134505D01*
X115353Y134581D01*
X115327Y134640D01*
X115309Y134702D01*
X115269Y134768D01*
X115237Y134838D01*
X115195Y134887D01*
X115161Y134942D01*
X115104Y134994D01*
X115053Y135052D01*
X115000Y135088D01*
X114952Y135131D01*
X114882Y135164D01*
X114817Y135207D01*
X114756Y135226D01*
X114698Y135254D01*
X114629Y135265D01*
X114548Y135289D01*
X114463Y135290D01*
X114394Y135301D01*
X113218Y135301D01*
X112027Y136492D01*
X112027Y168176D01*
X113218Y169367D01*
X123902Y169367D01*
X125092Y168176D01*
X125092Y136492D01*
X123902Y135301D01*
X122490Y135301D01*
X122426Y135292D01*
X122362Y135293D01*
X122287Y135272D01*
X122210Y135261D01*
X122152Y135235D01*
X122090Y135218D01*
X122024Y135177D01*
X121953Y135145D01*
X121905Y135103D01*
X121850Y135070D01*
X121798Y135012D01*
X121739Y134962D01*
X121704Y134908D01*
X121661Y134860D01*
X121627Y134791D01*
X121585Y134726D01*
X121566Y134664D01*
X121538Y134607D01*
X121527Y134537D01*
X121502Y134456D01*
X121501Y134371D01*
X121490Y134302D01*
X121490Y103235D01*
X121504Y103140D01*
X121509Y103044D01*
X121524Y103001D01*
X121530Y102956D01*
X121570Y102868D01*
X121601Y102778D01*
X121626Y102743D01*
X121646Y102699D01*
X121730Y102602D01*
X121783Y102529D01*
X147970Y76341D01*
X148047Y76284D01*
X148118Y76219D01*
X148159Y76199D01*
X148196Y76172D01*
X148286Y76138D01*
X148372Y76096D01*
X148414Y76090D01*
X148460Y76073D01*
X148587Y76063D01*
X148677Y76049D01*
X316323Y76049D01*
X316418Y76062D01*
X316514Y76067D01*
X316558Y76082D01*
X316602Y76089D01*
X316690Y76128D01*
X316781Y76160D01*
X316815Y76185D01*
X316859Y76205D01*
X316957Y76288D01*
X317030Y76341D01*
X356737Y116049D01*
X365646Y116049D01*
X365709Y116058D01*
X365774Y116057D01*
X365848Y116078D01*
X365925Y116089D01*
X365983Y116115D01*
X366046Y116132D01*
X366112Y116173D01*
X366182Y116205D01*
X366231Y116247D01*
X366285Y116280D01*
X366337Y116338D01*
X366396Y116388D01*
X366431Y116442D01*
X366475Y116490D01*
X366508Y116559D01*
X366551Y116624D01*
X366570Y116686D01*
X366598Y116743D01*
X366608Y116813D01*
X366633Y116894D01*
X366634Y116941D01*
X368667Y121851D01*
X372404Y125587D01*
X373714Y126130D01*
X373742Y126146D01*
X373772Y126156D01*
X373863Y126218D01*
X373957Y126274D01*
X373979Y126297D01*
X374005Y126315D01*
X374075Y126400D01*
X374150Y126479D01*
X374164Y126508D01*
X374185Y126533D01*
X374228Y126633D01*
X374277Y126731D01*
X374283Y126762D01*
X374296Y126792D01*
X374310Y126900D01*
X374330Y127008D01*
X374327Y127040D01*
X374331Y127072D01*
X374313Y127180D01*
X374303Y127289D01*
X374291Y127318D01*
X374286Y127350D01*
X374239Y127449D01*
X374198Y127551D01*
X374178Y127576D01*
X374165Y127605D01*
X374092Y127687D01*
X374025Y127773D01*
X373999Y127792D01*
X373977Y127816D01*
X373900Y127863D01*
X373796Y127938D01*
X373750Y127954D01*
X373714Y127976D01*
X372404Y128519D01*
X368667Y132255D01*
X366978Y136334D01*
X366973Y136343D01*
X366970Y136352D01*
X366901Y136464D01*
X366834Y136577D01*
X366827Y136584D01*
X366822Y136592D01*
X366724Y136680D01*
X366628Y136770D01*
X366620Y136774D01*
X366613Y136781D01*
X366494Y136838D01*
X366377Y136898D01*
X366368Y136900D01*
X366359Y136904D01*
X366283Y136916D01*
X366100Y136950D01*
X366076Y136948D01*
X366055Y136951D01*
X356737Y136951D01*
X322030Y171659D01*
X321953Y171716D01*
X321882Y171781D01*
X321841Y171801D01*
X321804Y171828D01*
X321714Y171862D01*
X321628Y171904D01*
X321586Y171910D01*
X321540Y171927D01*
X321413Y171937D01*
X321323Y171951D01*
X111677Y171951D01*
X111582Y171938D01*
X111486Y171933D01*
X111442Y171918D01*
X111398Y171911D01*
X111310Y171872D01*
X111219Y171840D01*
X111185Y171815D01*
X111141Y171795D01*
X111043Y171712D01*
X110970Y171659D01*
X105385Y166073D01*
X105327Y165997D01*
X105263Y165925D01*
X105243Y165884D01*
X105216Y165848D01*
X105182Y165758D01*
X105140Y165671D01*
X105133Y165629D01*
X105116Y165584D01*
X105106Y165456D01*
X105092Y165367D01*
X105092Y136492D01*
X103902Y135301D01*
X93218Y135301D01*
X92027Y136492D01*
X92027Y168176D01*
X93218Y169367D01*
X99641Y169367D01*
X99736Y169380D01*
X99832Y169385D01*
X99875Y169400D01*
X99920Y169407D01*
X100008Y169446D01*
X100099Y169478D01*
X100133Y169503D01*
X100177Y169523D01*
X100275Y169606D01*
X100348Y169659D01*
X106902Y176213D01*
X106921Y176239D01*
X106946Y176260D01*
X107006Y176352D01*
X107071Y176439D01*
X107083Y176469D01*
X107100Y176496D01*
X107132Y176601D01*
X107171Y176703D01*
X107173Y176735D01*
X107183Y176766D01*
X107184Y176875D01*
X107193Y176984D01*
X107186Y177016D01*
X107186Y177048D01*
X107157Y177153D01*
X107135Y177260D01*
X107120Y177289D01*
X107111Y177320D01*
X107054Y177413D01*
X107002Y177509D01*
X106980Y177532D01*
X106963Y177560D01*
X106882Y177633D01*
X106806Y177711D01*
X106778Y177727D01*
X106754Y177749D01*
X106655Y177796D01*
X106560Y177850D01*
X106529Y177858D01*
X106500Y177872D01*
X106411Y177886D01*
X106286Y177915D01*
X106237Y177913D01*
X106195Y177919D01*
X95518Y177919D01*
X95423Y177906D01*
X95327Y177901D01*
X95284Y177886D01*
X95239Y177879D01*
X95152Y177840D01*
X95061Y177808D01*
X95026Y177783D01*
X94982Y177763D01*
X94885Y177680D01*
X94812Y177627D01*
X79137Y161951D01*
X79079Y161875D01*
X79014Y161803D01*
X78995Y161762D01*
X78967Y161726D01*
X78933Y161636D01*
X78891Y161549D01*
X78885Y161507D01*
X78868Y161462D01*
X78858Y161334D01*
X78844Y161245D01*
X78844Y135882D01*
X77653Y134692D01*
X66969Y134692D01*
X65778Y135882D01*
X65778Y167566D01*
X66969Y168757D01*
X71158Y168757D01*
X71253Y168771D01*
X71349Y168776D01*
X71392Y168791D01*
X71437Y168797D01*
X71525Y168836D01*
X71616Y168868D01*
X71650Y168893D01*
X71694Y168913D01*
X71791Y168996D01*
X71865Y169050D01*
X90122Y187307D01*
X91989Y188081D01*
X340011Y188081D01*
X341878Y187307D01*
X358812Y170373D01*
X358889Y170316D01*
X358960Y170251D01*
X359001Y170231D01*
X359037Y170204D01*
X359127Y170170D01*
X359214Y170128D01*
X359256Y170122D01*
X359301Y170105D01*
X359429Y170095D01*
X359518Y170081D01*
X366902Y170081D01*
X366912Y170082D01*
X366921Y170081D01*
X367051Y170102D01*
X367182Y170121D01*
X367190Y170124D01*
X367200Y170126D01*
X367319Y170183D01*
X367438Y170237D01*
X367446Y170243D01*
X367454Y170247D01*
X367553Y170335D01*
X367653Y170420D01*
X367658Y170428D01*
X367665Y170434D01*
X367705Y170500D01*
X367807Y170656D01*
X367814Y170679D01*
X367826Y170698D01*
X368667Y172730D01*
X372404Y176466D01*
X377286Y178488D01*
X382570Y178488D01*
X387452Y176466D01*
X391188Y172730D01*
X393211Y167848D01*
X393211Y162564D01*
X391188Y157682D01*
X387452Y153945D01*
X386174Y153416D01*
X386146Y153399D01*
X386116Y153389D01*
X386025Y153328D01*
X385931Y153272D01*
X385909Y153249D01*
X385883Y153231D01*
X385813Y153146D01*
X385738Y153067D01*
X385724Y153038D01*
X385703Y153013D01*
X385660Y152913D01*
X385611Y152815D01*
X385605Y152783D01*
X385592Y152754D01*
X385578Y152645D01*
X385558Y152538D01*
X385561Y152506D01*
X385557Y152474D01*
X385575Y152366D01*
X385585Y152257D01*
X385597Y152227D01*
X385602Y152195D01*
X385649Y152097D01*
X385690Y151995D01*
X385709Y151970D01*
X385723Y151941D01*
X385796Y151859D01*
X385863Y151773D01*
X385889Y151754D01*
X385911Y151730D01*
X385988Y151683D01*
X386092Y151608D01*
X386138Y151592D01*
X386174Y151569D01*
X387452Y151040D01*
X391188Y147304D01*
X393211Y142422D01*
X393211Y137137D01*
X391188Y132255D01*
X387452Y128519D01*
X386142Y127976D01*
X386114Y127960D01*
X386083Y127950D01*
X385993Y127888D01*
X385899Y127833D01*
X385877Y127809D01*
X385850Y127791D01*
X385781Y127707D01*
X385706Y127627D01*
X385691Y127598D01*
X385671Y127573D01*
X385628Y127473D01*
X385578Y127376D01*
X385572Y127344D01*
X385559Y127314D01*
X385546Y127206D01*
X385526Y127098D01*
X385529Y127066D01*
X385525Y127034D01*
X385542Y126927D01*
X385553Y126818D01*
X385565Y126788D01*
X385570Y126756D01*
X385617Y126657D01*
X385657Y126556D01*
X385677Y126530D01*
X385691Y126501D01*
X385764Y126419D01*
X385831Y126333D01*
X385857Y126315D01*
X385878Y126290D01*
X385956Y126243D01*
X386060Y126168D01*
X386105Y126152D01*
X386142Y126130D01*
X387452Y125587D01*
X391188Y121851D01*
X393211Y116969D01*
X393211Y111685D01*
X391188Y106803D01*
X387452Y103066D01*
X382570Y101044D01*
X377286Y101044D01*
X372404Y103066D01*
X368667Y106803D01*
X367619Y109334D01*
X367614Y109343D01*
X367611Y109352D01*
X367542Y109464D01*
X367475Y109577D01*
X367468Y109584D01*
X367463Y109592D01*
X367365Y109680D01*
X367269Y109770D01*
X367261Y109774D01*
X367254Y109781D01*
X367135Y109838D01*
X367018Y109898D01*
X367008Y109900D01*
X367000Y109904D01*
X366924Y109916D01*
X366741Y109950D01*
X366717Y109948D01*
X366695Y109951D01*
X359677Y109951D01*
X359582Y109938D01*
X359486Y109933D01*
X359442Y109918D01*
X359398Y109911D01*
X359310Y109872D01*
X359219Y109840D01*
X359185Y109815D01*
X359141Y109795D01*
X359043Y109712D01*
X358970Y109659D01*
X319263Y69951D01*
X145737Y69951D01*
G37*
%LPD*%
%LPC*%
G36*
X22302Y96712D02*
X22302Y96712D01*
X21111Y97903D01*
X21111Y151087D01*
X22302Y152278D01*
X48986Y152278D01*
X50177Y151087D01*
X50177Y97903D01*
X48986Y96712D01*
X22302Y96712D01*
G37*
%LPD*%
%LPC*%
G36*
X168519Y96645D02*
X168519Y96645D01*
X167328Y97836D01*
X167328Y151020D01*
X168519Y152211D01*
X195203Y152211D01*
X196394Y151020D01*
X196394Y97836D01*
X195203Y96645D01*
X168519Y96645D01*
G37*
%LPD*%
%LPC*%
G36*
X139161Y135606D02*
X139161Y135606D01*
X137971Y136797D01*
X137971Y168481D01*
X139161Y169671D01*
X149845Y169671D01*
X151036Y168481D01*
X151036Y136797D01*
X149845Y135606D01*
X139161Y135606D01*
G37*
%LPD*%
D10*
X118560Y152334D03*
X98560Y152334D03*
X144503Y152639D03*
X72311Y151724D03*
D11*
X35644Y124495D03*
X181861Y124428D03*
D12*
X34209Y139546D02*
X34209Y157546D01*
D13*
X49000Y173000D03*
X155000Y116000D03*
D12*
X144678Y131613D02*
X144678Y153613D01*
X182454Y125209D02*
X200454Y125209D01*
D13*
X218000Y154000D03*
D14*
X379928Y63545D03*
X379928Y88979D03*
X379928Y165206D03*
X379928Y139780D03*
X379928Y114327D03*
D12*
X380000Y165000D02*
X357000Y165000D01*
X339000Y183000D01*
X93000Y183000D01*
X74000Y164000D01*
D15*
X358000Y140000D02*
X381000Y140000D01*
X358000Y140000D02*
X323000Y175000D01*
X110000Y175000D01*
X101000Y166000D01*
X358000Y113000D02*
X380000Y113000D01*
X358000Y113000D02*
X318000Y73000D01*
X147000Y73000D01*
X118442Y101558D01*
X118442Y141812D01*
M02*
