G04 EAGLE Gerber RS-274X export*
G75*
%MOMM*%
%FSLAX34Y34*%
%LPD*%
%INSilkscreen Top*%
%IPPOS*%
%AMOC8*
5,1,8,0,0,1.08239X$1,22.5*%
G01*
%ADD10C,0.177800*%
%ADD11C,0.101600*%
%ADD12C,0.127000*%


D10*
X207167Y101037D02*
X207167Y113493D01*
X211319Y109341D01*
X215471Y113493D01*
X215471Y101037D01*
X222340Y101037D02*
X226492Y101037D01*
X222340Y101037D02*
X220264Y103113D01*
X220264Y107265D01*
X222340Y109341D01*
X226492Y109341D01*
X228568Y107265D01*
X228568Y105189D01*
X220264Y105189D01*
X233361Y101037D02*
X233361Y109341D01*
X235437Y109341D01*
X237513Y107265D01*
X237513Y101037D01*
X237513Y107265D02*
X239590Y109341D01*
X241666Y107265D01*
X241666Y101037D01*
X248535Y101037D02*
X252687Y101037D01*
X254763Y103113D01*
X254763Y107265D01*
X252687Y109341D01*
X248535Y109341D01*
X246458Y107265D01*
X246458Y103113D01*
X248535Y101037D01*
X259556Y101037D02*
X259556Y109341D01*
X259556Y105189D02*
X263708Y109341D01*
X265784Y109341D01*
X270470Y109341D02*
X270470Y103113D01*
X272546Y101037D01*
X278775Y101037D01*
X278775Y98961D02*
X278775Y109341D01*
X278775Y98961D02*
X276698Y96885D01*
X274622Y96885D01*
X297108Y101053D02*
X297108Y109357D01*
X301260Y113509D01*
X305412Y109357D01*
X305412Y101053D01*
X305412Y107281D02*
X297108Y107281D01*
X318509Y113509D02*
X318509Y101053D01*
X312281Y101053D01*
X310205Y103129D01*
X310205Y107281D01*
X312281Y109357D01*
X318509Y109357D01*
X331606Y113509D02*
X331606Y101053D01*
X325378Y101053D01*
X323302Y103129D01*
X323302Y107281D01*
X325378Y109357D01*
X331606Y109357D01*
X338475Y101053D02*
X342628Y101053D01*
X344704Y103129D01*
X344704Y107281D01*
X342628Y109357D01*
X338475Y109357D01*
X336399Y107281D01*
X336399Y103129D01*
X338475Y101053D01*
X349497Y101053D02*
X349497Y109357D01*
X355725Y109357D01*
X357801Y107281D01*
X357801Y101053D01*
D11*
X239508Y84592D02*
X239508Y79508D01*
X239508Y84592D02*
X242050Y84592D01*
X242898Y83745D01*
X242898Y82898D01*
X242050Y82050D01*
X242898Y81203D01*
X242898Y80355D01*
X242050Y79508D01*
X239508Y79508D01*
X239508Y82050D02*
X242050Y82050D01*
X245121Y82898D02*
X245121Y80355D01*
X245968Y79508D01*
X248511Y79508D01*
X248511Y78661D02*
X248511Y82898D01*
X248511Y78661D02*
X247663Y77813D01*
X246816Y77813D01*
X250734Y82898D02*
X251582Y82898D01*
X251582Y82050D01*
X250734Y82050D01*
X250734Y82898D01*
X250734Y80355D02*
X251582Y80355D01*
X251582Y79508D01*
X250734Y79508D01*
X250734Y80355D01*
X259154Y84592D02*
X262543Y84592D01*
X259154Y84592D02*
X259154Y79508D01*
X262543Y79508D01*
X260849Y82050D02*
X259154Y82050D01*
X264767Y84592D02*
X265614Y84592D01*
X265614Y79508D01*
X264767Y79508D02*
X266462Y79508D01*
X269356Y79508D02*
X271051Y79508D01*
X269356Y79508D02*
X268509Y80355D01*
X268509Y82050D01*
X269356Y82898D01*
X271051Y82898D01*
X271899Y82050D01*
X271899Y81203D01*
X268509Y81203D01*
X274122Y79508D02*
X274122Y82898D01*
X274969Y82898D01*
X275817Y82050D01*
X275817Y79508D01*
X275817Y82050D02*
X276664Y82898D01*
X277512Y82050D01*
X277512Y79508D01*
X280583Y79508D02*
X282277Y79508D01*
X280583Y79508D02*
X279735Y80355D01*
X279735Y82050D01*
X280583Y82898D01*
X282277Y82898D01*
X283125Y82050D01*
X283125Y81203D01*
X279735Y81203D01*
X285348Y79508D02*
X285348Y82898D01*
X287890Y82898D01*
X288738Y82050D01*
X288738Y79508D01*
X291809Y80355D02*
X291809Y83745D01*
X291809Y80355D02*
X292656Y79508D01*
X292656Y82898D02*
X290961Y82898D01*
X294703Y82898D02*
X296398Y84592D01*
X296398Y79508D01*
X294703Y79508D02*
X298093Y79508D01*
X300317Y83745D02*
X301164Y84592D01*
X302859Y84592D01*
X303706Y83745D01*
X303706Y82898D01*
X302859Y82050D01*
X303706Y81203D01*
X303706Y80355D01*
X302859Y79508D01*
X301164Y79508D01*
X300317Y80355D01*
X300317Y81203D01*
X301164Y82050D01*
X300317Y82898D01*
X300317Y83745D01*
X301164Y82050D02*
X302859Y82050D01*
X305930Y84592D02*
X309319Y84592D01*
X305930Y84592D02*
X305930Y82050D01*
X307624Y82898D01*
X308472Y82898D01*
X309319Y82050D01*
X309319Y80355D01*
X308472Y79508D01*
X306777Y79508D01*
X305930Y80355D01*
X311543Y80355D02*
X312390Y79508D01*
X314085Y79508D01*
X314932Y80355D01*
X314932Y83745D01*
X314085Y84592D01*
X312390Y84592D01*
X311543Y83745D01*
X311543Y82898D01*
X312390Y82050D01*
X314932Y82050D01*
X317156Y79508D02*
X320545Y79508D01*
X317156Y79508D02*
X320545Y82898D01*
X320545Y83745D01*
X319698Y84592D01*
X318003Y84592D01*
X317156Y83745D01*
D10*
X255471Y136417D02*
X253395Y138493D01*
X249243Y138493D01*
X247167Y136417D01*
X247167Y128113D01*
X249243Y126037D01*
X253395Y126037D01*
X255471Y128113D01*
X262340Y126037D02*
X266492Y126037D01*
X268568Y128113D01*
X268568Y132265D01*
X266492Y134341D01*
X262340Y134341D01*
X260264Y132265D01*
X260264Y128113D01*
X262340Y126037D01*
X273361Y126037D02*
X273361Y134341D01*
X273361Y130189D02*
X277513Y134341D01*
X279590Y134341D01*
X286352Y126037D02*
X290504Y126037D01*
X292580Y128113D01*
X292580Y132265D01*
X290504Y134341D01*
X286352Y134341D01*
X284276Y132265D01*
X284276Y128113D01*
X286352Y126037D01*
X297373Y126037D02*
X297373Y134341D01*
X303601Y134341D01*
X305677Y132265D01*
X305677Y126037D01*
X312546Y134341D02*
X316698Y134341D01*
X318775Y132265D01*
X318775Y126037D01*
X312546Y126037D01*
X310470Y128113D01*
X312546Y130189D01*
X318775Y130189D01*
D12*
X49108Y155479D02*
X49108Y15652D01*
X168701Y14964D02*
X168701Y154791D01*
X167122Y14964D02*
X49308Y14964D01*
X167122Y14964D02*
X168701Y14964D01*
X168756Y155606D02*
X49398Y155606D01*
X159360Y92434D02*
X153010Y28934D01*
X121260Y28934D01*
X114910Y92434D01*
X57760Y92434D02*
X64110Y28934D01*
X95860Y28934D01*
X102210Y92434D01*
M02*
