G04 EAGLE Gerber RS-274X export*
G75*
%MOMM*%
%FSLAX34Y34*%
%LPD*%
%INBottom Copper*%
%IPPOS*%
%AMOC8*
5,1,8,0,0,1.08239X$1,22.5*%
G01*
%ADD10C,0.756400*%
%ADD11C,2.250000*%

G36*
X406683Y2171D02*
X406683Y2171D01*
X406747Y2170D01*
X406822Y2191D01*
X406898Y2202D01*
X406957Y2228D01*
X407019Y2245D01*
X407085Y2286D01*
X407155Y2318D01*
X407204Y2360D01*
X407259Y2394D01*
X407311Y2451D01*
X407370Y2501D01*
X407405Y2555D01*
X407448Y2603D01*
X407482Y2673D01*
X407524Y2737D01*
X407543Y2799D01*
X407571Y2857D01*
X407582Y2926D01*
X407607Y3007D01*
X407608Y3092D01*
X407619Y3161D01*
X407619Y201161D01*
X407609Y201225D01*
X407610Y201289D01*
X407590Y201364D01*
X407579Y201440D01*
X407552Y201499D01*
X407535Y201561D01*
X407494Y201627D01*
X407462Y201697D01*
X407421Y201746D01*
X407387Y201801D01*
X407329Y201853D01*
X407279Y201912D01*
X407225Y201947D01*
X407178Y201990D01*
X407108Y202024D01*
X407043Y202066D01*
X406982Y202085D01*
X406924Y202113D01*
X406854Y202124D01*
X406773Y202149D01*
X406689Y202150D01*
X406619Y202161D01*
X5385Y202161D01*
X5322Y202151D01*
X5257Y202152D01*
X5183Y202132D01*
X5106Y202121D01*
X5048Y202094D01*
X4986Y202077D01*
X4920Y202036D01*
X4849Y202004D01*
X4800Y201963D01*
X4746Y201929D01*
X4694Y201871D01*
X4635Y201821D01*
X4600Y201767D01*
X4557Y201720D01*
X4523Y201650D01*
X4480Y201585D01*
X4462Y201524D01*
X4434Y201466D01*
X4423Y201396D01*
X4398Y201315D01*
X4397Y201231D01*
X4386Y201161D01*
X4386Y3161D01*
X4395Y3098D01*
X4394Y3033D01*
X4415Y2959D01*
X4426Y2882D01*
X4452Y2824D01*
X4469Y2762D01*
X4510Y2696D01*
X4542Y2625D01*
X4584Y2576D01*
X4618Y2522D01*
X4675Y2470D01*
X4725Y2411D01*
X4779Y2376D01*
X4827Y2333D01*
X4897Y2299D01*
X4961Y2256D01*
X5023Y2238D01*
X5081Y2210D01*
X5150Y2199D01*
X5231Y2174D01*
X5316Y2173D01*
X5385Y2162D01*
X406619Y2162D01*
X406683Y2171D01*
G37*
%LPC*%
G36*
X377286Y101044D02*
X377286Y101044D01*
X372404Y103066D01*
X368667Y106803D01*
X366645Y111685D01*
X366645Y116969D01*
X368667Y121851D01*
X372404Y125587D01*
X373714Y126130D01*
X373742Y126146D01*
X373772Y126156D01*
X373863Y126218D01*
X373957Y126274D01*
X373979Y126297D01*
X374005Y126315D01*
X374075Y126400D01*
X374150Y126479D01*
X374164Y126508D01*
X374185Y126533D01*
X374228Y126633D01*
X374277Y126731D01*
X374283Y126762D01*
X374296Y126792D01*
X374310Y126900D01*
X374330Y127008D01*
X374327Y127040D01*
X374331Y127072D01*
X374313Y127180D01*
X374303Y127289D01*
X374291Y127318D01*
X374286Y127350D01*
X374239Y127449D01*
X374198Y127551D01*
X374178Y127576D01*
X374165Y127605D01*
X374092Y127687D01*
X374025Y127773D01*
X373999Y127792D01*
X373977Y127816D01*
X373900Y127863D01*
X373856Y127895D01*
X373853Y127897D01*
X373852Y127898D01*
X373796Y127938D01*
X373750Y127954D01*
X373714Y127976D01*
X372404Y128519D01*
X368667Y132255D01*
X366645Y137137D01*
X366645Y142422D01*
X368667Y147304D01*
X372404Y151040D01*
X373682Y151569D01*
X373710Y151586D01*
X373740Y151596D01*
X373830Y151657D01*
X373924Y151713D01*
X373946Y151737D01*
X373973Y151755D01*
X374043Y151839D01*
X374117Y151919D01*
X374132Y151948D01*
X374152Y151972D01*
X374196Y152073D01*
X374245Y152170D01*
X374251Y152202D01*
X374264Y152232D01*
X374277Y152340D01*
X374298Y152447D01*
X374294Y152479D01*
X374298Y152511D01*
X374281Y152619D01*
X374270Y152728D01*
X374258Y152758D01*
X374253Y152790D01*
X374206Y152889D01*
X374166Y152990D01*
X374146Y153015D01*
X374132Y153045D01*
X374060Y153126D01*
X373992Y153212D01*
X373966Y153231D01*
X373945Y153255D01*
X373867Y153303D01*
X373764Y153377D01*
X373718Y153394D01*
X373682Y153416D01*
X372404Y153945D01*
X368667Y157682D01*
X366645Y162564D01*
X366645Y167848D01*
X368667Y172730D01*
X372404Y176466D01*
X377286Y178488D01*
X382570Y178488D01*
X387452Y176466D01*
X391188Y172730D01*
X393211Y167848D01*
X393211Y162564D01*
X391188Y157682D01*
X387452Y153945D01*
X386174Y153416D01*
X386146Y153399D01*
X386116Y153389D01*
X386025Y153328D01*
X385931Y153272D01*
X385909Y153249D01*
X385883Y153231D01*
X385813Y153146D01*
X385738Y153067D01*
X385724Y153038D01*
X385703Y153013D01*
X385660Y152913D01*
X385611Y152815D01*
X385605Y152783D01*
X385592Y152754D01*
X385578Y152645D01*
X385558Y152538D01*
X385561Y152506D01*
X385557Y152474D01*
X385575Y152366D01*
X385585Y152257D01*
X385597Y152227D01*
X385602Y152195D01*
X385649Y152097D01*
X385690Y151995D01*
X385709Y151970D01*
X385723Y151941D01*
X385796Y151859D01*
X385863Y151773D01*
X385889Y151754D01*
X385911Y151730D01*
X385988Y151683D01*
X386092Y151608D01*
X386138Y151592D01*
X386174Y151569D01*
X387452Y151040D01*
X391188Y147304D01*
X393211Y142422D01*
X393211Y137137D01*
X391188Y132255D01*
X387452Y128519D01*
X386142Y127976D01*
X386114Y127960D01*
X386083Y127950D01*
X386032Y127915D01*
X386024Y127911D01*
X386015Y127903D01*
X385993Y127888D01*
X385899Y127833D01*
X385877Y127809D01*
X385850Y127791D01*
X385781Y127707D01*
X385706Y127627D01*
X385691Y127598D01*
X385671Y127573D01*
X385628Y127473D01*
X385578Y127376D01*
X385572Y127344D01*
X385559Y127314D01*
X385546Y127206D01*
X385526Y127098D01*
X385529Y127066D01*
X385525Y127034D01*
X385542Y126927D01*
X385553Y126818D01*
X385565Y126788D01*
X385570Y126756D01*
X385617Y126657D01*
X385657Y126556D01*
X385677Y126530D01*
X385691Y126501D01*
X385764Y126419D01*
X385831Y126333D01*
X385857Y126315D01*
X385878Y126290D01*
X385956Y126243D01*
X386060Y126168D01*
X386105Y126152D01*
X386142Y126130D01*
X387452Y125587D01*
X391188Y121851D01*
X393211Y116969D01*
X393211Y111685D01*
X391188Y106803D01*
X387452Y103066D01*
X382570Y101044D01*
X377286Y101044D01*
G37*
%LPD*%
D10*
X49000Y173000D03*
X155000Y116000D03*
X218000Y154000D03*
D11*
X379928Y63545D03*
X379928Y88979D03*
X379928Y165206D03*
X379928Y139780D03*
X379928Y114327D03*
M02*
