G04 EAGLE Gerber RS-274X export*
G75*
%MOMM*%
%FSLAX34Y34*%
%LPD*%
%INBoard Outline*%
%IPPOS*%
%AMOC8*
5,1,8,0,0,1.08239X$1,22.5*%
G01*
%ADD10C,0.152400*%
%ADD11C,0.127000*%
%ADD12C,0.254000*%


D10*
X371000Y191000D02*
X48000Y191000D01*
X47289Y190942D01*
X46579Y190867D01*
X45872Y190774D01*
X45167Y190664D01*
X44465Y190537D01*
X43766Y190393D01*
X43072Y190231D01*
X42381Y190053D01*
X41695Y189857D01*
X41013Y189645D01*
X40338Y189416D01*
X39668Y189171D01*
X39004Y188909D01*
X38347Y188631D01*
X37697Y188337D01*
X37054Y188027D01*
X36420Y187702D01*
X35793Y187361D01*
X35175Y187004D01*
X34566Y186633D01*
X33966Y186247D01*
X33375Y185846D01*
X32795Y185431D01*
X32225Y185002D01*
X31666Y184558D01*
X31118Y184102D01*
X30582Y183632D01*
X30056Y183149D01*
X29543Y182653D01*
X29043Y182145D01*
X28555Y181624D01*
X28080Y181092D01*
X27618Y180548D01*
X27169Y179993D01*
X26735Y179428D01*
X26314Y178851D01*
X25907Y178265D01*
X25515Y177669D01*
X25138Y177063D01*
X24776Y176449D01*
X24429Y175825D01*
X24098Y175194D01*
X23782Y174554D01*
X23481Y173907D01*
X23197Y173252D01*
X22929Y172591D01*
X22677Y171924D01*
X22442Y171250D01*
X22223Y170571D01*
X22021Y169887D01*
X21836Y169198D01*
X21668Y168504D01*
X21517Y167807D01*
X21383Y167106D01*
X21266Y166403D01*
X21167Y165696D01*
X21085Y164987D01*
X21020Y164277D01*
X20973Y163565D01*
X20943Y162852D01*
X20931Y162139D01*
X20937Y161425D01*
X20960Y160712D01*
X21000Y160000D01*
X21000Y97000D01*
X48000Y97000D01*
X48000Y15000D01*
X169000Y15000D01*
X169000Y40000D01*
X370000Y40000D01*
X370242Y40003D01*
X370483Y40012D01*
X370724Y40026D01*
X370965Y40047D01*
X371205Y40073D01*
X371445Y40105D01*
X371684Y40143D01*
X371921Y40186D01*
X372158Y40236D01*
X372393Y40291D01*
X372627Y40351D01*
X372859Y40418D01*
X373090Y40489D01*
X373319Y40567D01*
X373546Y40650D01*
X373771Y40738D01*
X373994Y40832D01*
X374214Y40931D01*
X374432Y41036D01*
X374647Y41145D01*
X374860Y41260D01*
X375070Y41380D01*
X375276Y41505D01*
X375480Y41635D01*
X375681Y41770D01*
X375878Y41910D01*
X376072Y42054D01*
X376262Y42203D01*
X376448Y42357D01*
X376631Y42515D01*
X376810Y42677D01*
X376985Y42844D01*
X377156Y43015D01*
X377323Y43190D01*
X377485Y43369D01*
X377643Y43552D01*
X377797Y43738D01*
X377946Y43928D01*
X378090Y44122D01*
X378230Y44319D01*
X378365Y44520D01*
X378495Y44724D01*
X378620Y44930D01*
X378740Y45140D01*
X378855Y45353D01*
X378964Y45568D01*
X379069Y45786D01*
X379168Y46006D01*
X379262Y46229D01*
X379350Y46454D01*
X379433Y46681D01*
X379511Y46910D01*
X379582Y47141D01*
X379649Y47373D01*
X379709Y47607D01*
X379764Y47842D01*
X379814Y48079D01*
X379857Y48316D01*
X379895Y48555D01*
X379927Y48795D01*
X379953Y49035D01*
X379974Y49276D01*
X379988Y49517D01*
X379997Y49758D01*
X380000Y50000D01*
X380000Y182000D01*
X379997Y182217D01*
X379989Y182435D01*
X379976Y182652D01*
X379958Y182869D01*
X379934Y183085D01*
X379906Y183300D01*
X379872Y183515D01*
X379832Y183729D01*
X379788Y183942D01*
X379738Y184154D01*
X379684Y184364D01*
X379624Y184574D01*
X379560Y184781D01*
X379490Y184987D01*
X379415Y185191D01*
X379336Y185394D01*
X379251Y185594D01*
X379162Y185793D01*
X379068Y185989D01*
X378969Y186183D01*
X378866Y186374D01*
X378758Y186563D01*
X378645Y186749D01*
X378528Y186932D01*
X378407Y187113D01*
X378281Y187290D01*
X378151Y187464D01*
X378017Y187636D01*
X377879Y187804D01*
X377737Y187968D01*
X377590Y188129D01*
X377440Y188287D01*
X377287Y188440D01*
X377129Y188590D01*
X376968Y188737D01*
X376804Y188879D01*
X376636Y189017D01*
X376464Y189151D01*
X376290Y189281D01*
X376113Y189407D01*
X375932Y189528D01*
X375749Y189645D01*
X375563Y189758D01*
X375374Y189866D01*
X375183Y189969D01*
X374989Y190068D01*
X374793Y190162D01*
X374594Y190251D01*
X374394Y190336D01*
X374191Y190415D01*
X373987Y190490D01*
X373781Y190560D01*
X373574Y190624D01*
X373364Y190684D01*
X373154Y190738D01*
X372942Y190788D01*
X372729Y190832D01*
X372515Y190872D01*
X372300Y190906D01*
X372085Y190934D01*
X371869Y190958D01*
X371652Y190976D01*
X371435Y190989D01*
X371217Y190997D01*
X371000Y191000D01*
D11*
X126405Y113942D02*
X126407Y114114D01*
X126413Y114285D01*
X126424Y114457D01*
X126439Y114628D01*
X126458Y114799D01*
X126481Y114969D01*
X126508Y115139D01*
X126540Y115308D01*
X126575Y115476D01*
X126615Y115643D01*
X126659Y115809D01*
X126706Y115974D01*
X126758Y116138D01*
X126814Y116300D01*
X126874Y116461D01*
X126938Y116621D01*
X127006Y116779D01*
X127077Y116935D01*
X127152Y117089D01*
X127232Y117242D01*
X127314Y117392D01*
X127401Y117541D01*
X127491Y117687D01*
X127585Y117831D01*
X127682Y117973D01*
X127783Y118112D01*
X127887Y118249D01*
X127994Y118383D01*
X128105Y118514D01*
X128218Y118643D01*
X128335Y118769D01*
X128455Y118892D01*
X128578Y119012D01*
X128704Y119129D01*
X128833Y119242D01*
X128964Y119353D01*
X129098Y119460D01*
X129235Y119564D01*
X129374Y119665D01*
X129516Y119762D01*
X129660Y119856D01*
X129806Y119946D01*
X129955Y120033D01*
X130105Y120115D01*
X130258Y120195D01*
X130412Y120270D01*
X130568Y120341D01*
X130726Y120409D01*
X130886Y120473D01*
X131047Y120533D01*
X131209Y120589D01*
X131373Y120641D01*
X131538Y120688D01*
X131704Y120732D01*
X131871Y120772D01*
X132039Y120807D01*
X132208Y120839D01*
X132378Y120866D01*
X132548Y120889D01*
X132719Y120908D01*
X132890Y120923D01*
X133062Y120934D01*
X133233Y120940D01*
X133405Y120942D01*
X133577Y120940D01*
X133748Y120934D01*
X133920Y120923D01*
X134091Y120908D01*
X134262Y120889D01*
X134432Y120866D01*
X134602Y120839D01*
X134771Y120807D01*
X134939Y120772D01*
X135106Y120732D01*
X135272Y120688D01*
X135437Y120641D01*
X135601Y120589D01*
X135763Y120533D01*
X135924Y120473D01*
X136084Y120409D01*
X136242Y120341D01*
X136398Y120270D01*
X136552Y120195D01*
X136705Y120115D01*
X136855Y120033D01*
X137004Y119946D01*
X137150Y119856D01*
X137294Y119762D01*
X137436Y119665D01*
X137575Y119564D01*
X137712Y119460D01*
X137846Y119353D01*
X137977Y119242D01*
X138106Y119129D01*
X138232Y119012D01*
X138355Y118892D01*
X138475Y118769D01*
X138592Y118643D01*
X138705Y118514D01*
X138816Y118383D01*
X138923Y118249D01*
X139027Y118112D01*
X139128Y117973D01*
X139225Y117831D01*
X139319Y117687D01*
X139409Y117541D01*
X139496Y117392D01*
X139578Y117242D01*
X139658Y117089D01*
X139733Y116935D01*
X139804Y116779D01*
X139872Y116621D01*
X139936Y116461D01*
X139996Y116300D01*
X140052Y116138D01*
X140104Y115974D01*
X140151Y115809D01*
X140195Y115643D01*
X140235Y115476D01*
X140270Y115308D01*
X140302Y115139D01*
X140329Y114969D01*
X140352Y114799D01*
X140371Y114628D01*
X140386Y114457D01*
X140397Y114285D01*
X140403Y114114D01*
X140405Y113942D01*
X140403Y113770D01*
X140397Y113599D01*
X140386Y113427D01*
X140371Y113256D01*
X140352Y113085D01*
X140329Y112915D01*
X140302Y112745D01*
X140270Y112576D01*
X140235Y112408D01*
X140195Y112241D01*
X140151Y112075D01*
X140104Y111910D01*
X140052Y111746D01*
X139996Y111584D01*
X139936Y111423D01*
X139872Y111263D01*
X139804Y111105D01*
X139733Y110949D01*
X139658Y110795D01*
X139578Y110642D01*
X139496Y110492D01*
X139409Y110343D01*
X139319Y110197D01*
X139225Y110053D01*
X139128Y109911D01*
X139027Y109772D01*
X138923Y109635D01*
X138816Y109501D01*
X138705Y109370D01*
X138592Y109241D01*
X138475Y109115D01*
X138355Y108992D01*
X138232Y108872D01*
X138106Y108755D01*
X137977Y108642D01*
X137846Y108531D01*
X137712Y108424D01*
X137575Y108320D01*
X137436Y108219D01*
X137294Y108122D01*
X137150Y108028D01*
X137004Y107938D01*
X136855Y107851D01*
X136705Y107769D01*
X136552Y107689D01*
X136398Y107614D01*
X136242Y107543D01*
X136084Y107475D01*
X135924Y107411D01*
X135763Y107351D01*
X135601Y107295D01*
X135437Y107243D01*
X135272Y107196D01*
X135106Y107152D01*
X134939Y107112D01*
X134771Y107077D01*
X134602Y107045D01*
X134432Y107018D01*
X134262Y106995D01*
X134091Y106976D01*
X133920Y106961D01*
X133748Y106950D01*
X133577Y106944D01*
X133405Y106942D01*
X133233Y106944D01*
X133062Y106950D01*
X132890Y106961D01*
X132719Y106976D01*
X132548Y106995D01*
X132378Y107018D01*
X132208Y107045D01*
X132039Y107077D01*
X131871Y107112D01*
X131704Y107152D01*
X131538Y107196D01*
X131373Y107243D01*
X131209Y107295D01*
X131047Y107351D01*
X130886Y107411D01*
X130726Y107475D01*
X130568Y107543D01*
X130412Y107614D01*
X130258Y107689D01*
X130105Y107769D01*
X129955Y107851D01*
X129806Y107938D01*
X129660Y108028D01*
X129516Y108122D01*
X129374Y108219D01*
X129235Y108320D01*
X129098Y108424D01*
X128964Y108531D01*
X128833Y108642D01*
X128704Y108755D01*
X128578Y108872D01*
X128455Y108992D01*
X128335Y109115D01*
X128218Y109241D01*
X128105Y109370D01*
X127994Y109501D01*
X127887Y109635D01*
X127783Y109772D01*
X127682Y109911D01*
X127585Y110053D01*
X127491Y110197D01*
X127401Y110343D01*
X127314Y110492D01*
X127232Y110642D01*
X127152Y110795D01*
X127077Y110949D01*
X127006Y111105D01*
X126938Y111263D01*
X126874Y111423D01*
X126814Y111584D01*
X126758Y111746D01*
X126706Y111910D01*
X126659Y112075D01*
X126615Y112241D01*
X126575Y112408D01*
X126540Y112576D01*
X126508Y112745D01*
X126481Y112915D01*
X126458Y113085D01*
X126439Y113256D01*
X126424Y113427D01*
X126413Y113599D01*
X126407Y113770D01*
X126405Y113942D01*
X76405Y113942D02*
X76407Y114114D01*
X76413Y114285D01*
X76424Y114457D01*
X76439Y114628D01*
X76458Y114799D01*
X76481Y114969D01*
X76508Y115139D01*
X76540Y115308D01*
X76575Y115476D01*
X76615Y115643D01*
X76659Y115809D01*
X76706Y115974D01*
X76758Y116138D01*
X76814Y116300D01*
X76874Y116461D01*
X76938Y116621D01*
X77006Y116779D01*
X77077Y116935D01*
X77152Y117089D01*
X77232Y117242D01*
X77314Y117392D01*
X77401Y117541D01*
X77491Y117687D01*
X77585Y117831D01*
X77682Y117973D01*
X77783Y118112D01*
X77887Y118249D01*
X77994Y118383D01*
X78105Y118514D01*
X78218Y118643D01*
X78335Y118769D01*
X78455Y118892D01*
X78578Y119012D01*
X78704Y119129D01*
X78833Y119242D01*
X78964Y119353D01*
X79098Y119460D01*
X79235Y119564D01*
X79374Y119665D01*
X79516Y119762D01*
X79660Y119856D01*
X79806Y119946D01*
X79955Y120033D01*
X80105Y120115D01*
X80258Y120195D01*
X80412Y120270D01*
X80568Y120341D01*
X80726Y120409D01*
X80886Y120473D01*
X81047Y120533D01*
X81209Y120589D01*
X81373Y120641D01*
X81538Y120688D01*
X81704Y120732D01*
X81871Y120772D01*
X82039Y120807D01*
X82208Y120839D01*
X82378Y120866D01*
X82548Y120889D01*
X82719Y120908D01*
X82890Y120923D01*
X83062Y120934D01*
X83233Y120940D01*
X83405Y120942D01*
X83577Y120940D01*
X83748Y120934D01*
X83920Y120923D01*
X84091Y120908D01*
X84262Y120889D01*
X84432Y120866D01*
X84602Y120839D01*
X84771Y120807D01*
X84939Y120772D01*
X85106Y120732D01*
X85272Y120688D01*
X85437Y120641D01*
X85601Y120589D01*
X85763Y120533D01*
X85924Y120473D01*
X86084Y120409D01*
X86242Y120341D01*
X86398Y120270D01*
X86552Y120195D01*
X86705Y120115D01*
X86855Y120033D01*
X87004Y119946D01*
X87150Y119856D01*
X87294Y119762D01*
X87436Y119665D01*
X87575Y119564D01*
X87712Y119460D01*
X87846Y119353D01*
X87977Y119242D01*
X88106Y119129D01*
X88232Y119012D01*
X88355Y118892D01*
X88475Y118769D01*
X88592Y118643D01*
X88705Y118514D01*
X88816Y118383D01*
X88923Y118249D01*
X89027Y118112D01*
X89128Y117973D01*
X89225Y117831D01*
X89319Y117687D01*
X89409Y117541D01*
X89496Y117392D01*
X89578Y117242D01*
X89658Y117089D01*
X89733Y116935D01*
X89804Y116779D01*
X89872Y116621D01*
X89936Y116461D01*
X89996Y116300D01*
X90052Y116138D01*
X90104Y115974D01*
X90151Y115809D01*
X90195Y115643D01*
X90235Y115476D01*
X90270Y115308D01*
X90302Y115139D01*
X90329Y114969D01*
X90352Y114799D01*
X90371Y114628D01*
X90386Y114457D01*
X90397Y114285D01*
X90403Y114114D01*
X90405Y113942D01*
X90403Y113770D01*
X90397Y113599D01*
X90386Y113427D01*
X90371Y113256D01*
X90352Y113085D01*
X90329Y112915D01*
X90302Y112745D01*
X90270Y112576D01*
X90235Y112408D01*
X90195Y112241D01*
X90151Y112075D01*
X90104Y111910D01*
X90052Y111746D01*
X89996Y111584D01*
X89936Y111423D01*
X89872Y111263D01*
X89804Y111105D01*
X89733Y110949D01*
X89658Y110795D01*
X89578Y110642D01*
X89496Y110492D01*
X89409Y110343D01*
X89319Y110197D01*
X89225Y110053D01*
X89128Y109911D01*
X89027Y109772D01*
X88923Y109635D01*
X88816Y109501D01*
X88705Y109370D01*
X88592Y109241D01*
X88475Y109115D01*
X88355Y108992D01*
X88232Y108872D01*
X88106Y108755D01*
X87977Y108642D01*
X87846Y108531D01*
X87712Y108424D01*
X87575Y108320D01*
X87436Y108219D01*
X87294Y108122D01*
X87150Y108028D01*
X87004Y107938D01*
X86855Y107851D01*
X86705Y107769D01*
X86552Y107689D01*
X86398Y107614D01*
X86242Y107543D01*
X86084Y107475D01*
X85924Y107411D01*
X85763Y107351D01*
X85601Y107295D01*
X85437Y107243D01*
X85272Y107196D01*
X85106Y107152D01*
X84939Y107112D01*
X84771Y107077D01*
X84602Y107045D01*
X84432Y107018D01*
X84262Y106995D01*
X84091Y106976D01*
X83920Y106961D01*
X83748Y106950D01*
X83577Y106944D01*
X83405Y106942D01*
X83233Y106944D01*
X83062Y106950D01*
X82890Y106961D01*
X82719Y106976D01*
X82548Y106995D01*
X82378Y107018D01*
X82208Y107045D01*
X82039Y107077D01*
X81871Y107112D01*
X81704Y107152D01*
X81538Y107196D01*
X81373Y107243D01*
X81209Y107295D01*
X81047Y107351D01*
X80886Y107411D01*
X80726Y107475D01*
X80568Y107543D01*
X80412Y107614D01*
X80258Y107689D01*
X80105Y107769D01*
X79955Y107851D01*
X79806Y107938D01*
X79660Y108028D01*
X79516Y108122D01*
X79374Y108219D01*
X79235Y108320D01*
X79098Y108424D01*
X78964Y108531D01*
X78833Y108642D01*
X78704Y108755D01*
X78578Y108872D01*
X78455Y108992D01*
X78335Y109115D01*
X78218Y109241D01*
X78105Y109370D01*
X77994Y109501D01*
X77887Y109635D01*
X77783Y109772D01*
X77682Y109911D01*
X77585Y110053D01*
X77491Y110197D01*
X77401Y110343D01*
X77314Y110492D01*
X77232Y110642D01*
X77152Y110795D01*
X77077Y110949D01*
X77006Y111105D01*
X76938Y111263D01*
X76874Y111423D01*
X76814Y111584D01*
X76758Y111746D01*
X76706Y111910D01*
X76659Y112075D01*
X76615Y112241D01*
X76575Y112408D01*
X76540Y112576D01*
X76508Y112745D01*
X76481Y112915D01*
X76458Y113085D01*
X76439Y113256D01*
X76424Y113427D01*
X76413Y113599D01*
X76407Y113770D01*
X76405Y113942D01*
D12*
X21000Y97000D02*
X48000Y97000D01*
X48000Y15000D01*
X169000Y15000D01*
X169000Y40000D01*
X370000Y40000D01*
X370872Y40038D01*
X371736Y40152D01*
X372588Y40341D01*
X373420Y40603D01*
X374226Y40937D01*
X375000Y41340D01*
X375736Y41808D01*
X376428Y42340D01*
X377071Y42929D01*
X377660Y43572D01*
X378192Y44264D01*
X378660Y45000D01*
X379063Y45774D01*
X379397Y46580D01*
X379659Y47412D01*
X379848Y48264D01*
X379962Y49128D01*
X380000Y50000D01*
X380000Y182000D01*
X379966Y182784D01*
X379863Y183563D01*
X379693Y184329D01*
X379457Y185078D01*
X379157Y185804D01*
X378794Y186500D01*
X378372Y187162D01*
X377894Y187785D01*
X377364Y188364D01*
X376785Y188894D01*
X376162Y189372D01*
X375500Y189794D01*
X374804Y190157D01*
X374078Y190457D01*
X373329Y190693D01*
X372563Y190863D01*
X371784Y190966D01*
X371000Y191000D01*
X48000Y191000D01*
X45480Y190715D01*
X42995Y190212D01*
X40562Y189494D01*
X38202Y188567D01*
X35931Y187438D01*
X33768Y186115D01*
X31728Y184608D01*
X29827Y182930D01*
X28080Y181092D01*
X26499Y179109D01*
X25097Y176995D01*
X23885Y174768D01*
X22872Y172443D01*
X22065Y170039D01*
X21471Y167574D01*
X21093Y165066D01*
X20936Y162535D01*
X21000Y160000D01*
X21000Y97000D01*
M02*
